<svg id="Layer_1" data-name="Layer 1" xmlns="http://www.w3.org/2000/svg" viewBox="0 0 500 500"><defs><style>.cls-1{fill:#d52063;}</style></defs><title>Artboard 1 copy</title><g id="bImdVE"><path class="cls-1" d="M250.12,464.16c-38.79,0-77.58.1-116.37-.08-11.94-.06-23.21-3.71-34.1-8.32a85,85,0,0,1-22.73-13.64c-7.46-6.43-11.23-14.13-10.55-24.37C67.78,396.11,73,375.6,84,356.84q33.15-56.64,98-67.95c10.3-1.78,20.73-1.53,31.15-1.51,28.53,0,57.08-.17,85.61,0a136.31,136.31,0,0,1,124.5,83.86,138.54,138.54,0,0,1,10.48,50.45,22.3,22.3,0,0,1-4.95,14.43A51.55,51.55,0,0,1,414,448.78,107.13,107.13,0,0,1,369.46,464a108.11,108.11,0,0,1-11.25.18Z"/><path class="cls-1" d="M249.79,253.32c-61-.62-109.34-49.63-108.5-110.47a108.78,108.78,0,1,1,108.5,110.47Z"/></g></svg>