<?xml version="1.0" encoding="utf-8"?>
<!-- Generator: Adobe Illustrator 16.0.0, SVG Export Plug-In . SVG Version: 6.00 Build 0)  -->
<!DOCTYPE svg PUBLIC "-//W3C//DTD SVG 1.1//EN" "http://www.w3.org/Graphics/SVG/1.1/DTD/svg11.dtd">
<svg version="1.1" id="Layer_1" xmlns="http://www.w3.org/2000/svg" xmlns:xlink="http://www.w3.org/1999/xlink" x="0px" y="0px"
	 width="500px" height="500px" viewBox="0 0 500 500" enable-background="new 0 0 500 500" xml:space="preserve">
<g>
	<circle fill="#D91965" cx="250.151" cy="258.705" r="164.253"/>
	<g>
		<g>
			<path fill="#606262" d="M48.211,234.66l0.129-0.033c3.1,0.165,5.545,1.35,7.336,3.554c1.793,2.205,2.563,5.071,2.309,8.601
				c-0.254,3.571-1.662,6.387-4.225,8.449c-2.561,2.063-5.713,2.959-9.451,2.692l-5.818-0.416c-3.725-0.267-6.717-1.588-8.975-3.967
				c-2.258-2.379-3.262-5.333-3.008-8.862c0.258-3.613,1.41-6.393,3.457-8.335c2.047-1.944,4.67-2.773,7.873-2.488l0.123,0.051
				l-0.354,4.936c-2.057-0.147-3.701,0.296-4.93,1.327c-1.229,1.03-1.918,2.632-2.074,4.802c-0.15,2.087,0.557,3.802,2.121,5.146
				c1.563,1.343,3.59,2.104,6.08,2.283l5.855,0.419c2.52,0.18,4.648-0.297,6.389-1.434c1.742-1.134,2.688-2.767,2.84-4.896
				c0.152-2.114-0.299-3.759-1.352-4.932s-2.611-1.834-4.678-1.981L48.211,234.66z"/>
			<path fill="#606262" d="M51.971,200.97l-3.33,12.996l9.385,2.404l3.863-15.077l3.979,1.02l-5.133,20.033l-29.705-7.61
				l5.098-19.891l3.979,1.019l-3.826,14.935l8.385,2.148l3.328-12.995L51.971,200.97z"/>
			<path fill="#606262" d="M60.705,180.569l11.551,5.329l-2.145,4.647L42.27,177.7l4.746-10.288c1.436-3.111,3.244-5.191,5.43-6.24
				c2.184-1.048,4.576-0.973,7.178,0.227c1.441,0.666,2.508,1.609,3.203,2.834c0.695,1.226,1.025,2.697,0.992,4.413
				c1.221-1.339,2.553-2.093,4-2.26c1.445-0.169,2.99,0.127,4.635,0.886l2.314,1.067c0.814,0.377,1.658,0.642,2.531,0.797
				c0.871,0.155,1.623,0.084,2.256-0.212l0.439,0.204l-2.207,4.78c-0.656,0.316-1.471,0.338-2.443,0.067
				c-0.971-0.27-1.891-0.605-2.76-1.006l-2.236-1.032c-1.428-0.659-2.75-0.774-3.969-0.347c-1.217,0.429-2.156,1.356-2.814,2.784
				L60.705,180.569z M56.977,178.849l2.488-5.392c0.859-1.861,1.129-3.383,0.807-4.567c-0.318-1.184-1.211-2.114-2.678-2.79
				c-1.402-0.647-2.695-0.734-3.881-0.261c-1.186,0.475-2.174,1.572-2.969,3.292l-2.604,5.641L56.977,178.849z"/>
			<path fill="#606262" d="M76.582,126.192l-5.295,7.605l21.795,15.173l-2.924,4.201l-21.795-15.174l-5.295,7.604l-3.369-2.346
				l13.514-19.409L76.582,126.192z"/>
			<path fill="#606262" d="M110.357,128.091l-3.48,3.751l-22.48-20.854l3.48-3.751L110.357,128.091z"/>
			<path fill="#606262" d="M127.471,95.335l-10.428,8.475l8.248,10.149l-3.973,3.227L101.98,93.39l16.066-13.055l2.59,3.186
				l-12.094,9.829l5.908,7.273l10.43-8.474L127.471,95.335z"/>
			<path fill="#606262" d="M152.826,94.509l-4.385,2.637l-15.795-26.283l4.385-2.635L152.826,94.509z"/>
			<path fill="#606262" d="M178.088,67.184L165.73,72.4l3.766,8.925l14.34-6.052l1.596,3.783L166.379,87.1l-11.924-28.25
				l18.918-7.985l1.596,3.783l-14.201,5.996l3.365,7.975l12.359-5.218L178.088,67.184z"/>
			<path fill="#606262" d="M197.367,75.323l-6.656-29.932l9.705-2.158c3.797-0.843,7.146-0.345,10.053,1.498
				c2.904,1.843,4.771,4.628,5.6,8.356l1.01,4.543c0.832,3.742,0.32,7.056-1.533,9.941c-1.854,2.887-4.678,4.751-8.475,5.595
				L197.367,75.323z M196.6,48.288l4.871,21.916l4.564-1.015c2.48-0.552,4.252-1.793,5.311-3.725
				c1.059-1.931,1.305-4.176,0.734-6.737l-1.018-4.581c-0.564-2.533-1.734-4.45-3.512-5.75c-1.779-1.3-3.908-1.675-6.389-1.124
				L196.6,48.288z"/>
			<path fill="#606262" d="M267.109,38.255l5.111,0.3l-1.279,21.759c-0.168,2.859-1.213,5.069-3.133,6.63
				c-1.92,1.562-4.309,2.257-7.17,2.09c-3.068-0.181-5.455-1.087-7.16-2.721c-1.703-1.633-2.434-3.919-2.191-6.858l0.049-0.125
				l4.941,0.291c-0.102,1.732,0.256,3.026,1.068,3.887c0.814,0.86,1.994,1.335,3.535,1.426c1.346,0.079,2.484-0.324,3.416-1.21
				c0.93-0.888,1.441-2.129,1.535-3.727L267.109,38.255z"/>
			<path fill="#606262" d="M306.24,62.071l-13.063-3.061l-2.209,9.433l15.152,3.55l-0.936,3.999l-20.137-4.717l6.994-29.855
				l19.992,4.684l-0.938,3.998l-15.01-3.517l-1.973,8.428l13.061,3.06L306.24,62.071z"/>
			<path fill="#606262" d="M327.174,75.35l-0.018,0.038l0.064-0.087l15.018-17.749l3.705,1.723l-3.875,23.005l-0.043,0.142
				l0.107-0.182l13.854-18.292l4.563,2.124l-19.541,24.727l-4.221-1.964l3.729-22.539l-0.115-0.053l-14.859,17.359l-4.24-1.972
				l6.35-30.866l4.564,2.123L327.174,75.35z"/>
			<path fill="#606262" d="M380.947,101.025l-10.764-8.007l-5.783,7.772l12.486,9.29l-2.451,3.295l-16.594-12.344l18.305-24.603
				l16.473,12.257l-2.449,3.295l-12.369-9.202l-5.168,6.945l10.764,8.007L380.947,101.025z"/>
			<path fill="#606262" d="M390.201,122.758l9.748,10.172l-2.967,2.841l-13.287-13.868l22.141-21.214l3.541,3.696L390.201,122.758z"
				/>
			<path fill="#606262" d="M410.938,147.453l7.955,11.627l-3.389,2.32l-10.846-15.851l25.305-17.316l2.891,4.223L410.938,147.453z"
				/>
			<path fill="#606262" d="M441.764,183.331l-5.604-12.188l-8.801,4.046l6.502,14.141l-3.732,1.715l-8.641-18.79l27.859-12.812
				l8.578,18.656l-3.73,1.717l-6.439-14.007l-7.865,3.616l5.604,12.189L441.764,183.331z"/>
			<path fill="#606262" d="M447.836,204.679l-12.326,3.14l-1.264-4.959l29.715-7.567l2.797,10.979
				c0.844,3.32,0.75,6.075-0.287,8.267c-1.035,2.19-2.941,3.639-5.717,4.346c-1.537,0.392-2.963,0.332-4.273-0.183
				c-1.311-0.513-2.494-1.446-3.549-2.801c-0.104,1.809-0.666,3.234-1.682,4.275c-1.018,1.042-2.404,1.786-4.158,2.232l-2.471,0.629
				c-0.871,0.222-1.693,0.548-2.467,0.977c-0.775,0.428-1.314,0.957-1.619,1.585l-0.469,0.119l-1.299-5.101
				c0.311-0.659,0.928-1.19,1.855-1.592c0.926-0.403,1.852-0.721,2.775-0.957l2.389-0.608c1.523-0.389,2.623-1.133,3.301-2.231
				c0.676-1.1,0.82-2.412,0.432-3.935L447.836,204.679z M451.814,203.666l1.467,5.755c0.506,1.986,1.256,3.338,2.25,4.055
				c0.994,0.718,2.273,0.877,3.838,0.479c1.496-0.381,2.555-1.129,3.178-2.244c0.621-1.114,0.697-2.59,0.23-4.427l-1.533-6.021
				L451.814,203.666z"/>
			<path fill="#606262" d="M458.197,246.554l15.404,6.326l0.406,5.693l-20.609-9.185l-10.736,0.771l-0.363-5.083l11.006-0.791
				l18.828-11.845l0.41,5.693L458.197,246.554z"/>
		</g>
	</g>
	<g id="l2XPOj_3_">
		<g>
			<path fill="#FFFFFF" d="M181.105,274.265c2.798-6.932-1.125-11.645-7.799-15.126c-1.656-0.864-3.074-2.173-4.67-3.169
				c-3.848-2.401-5.146-5.361-2.246-9.358c0.122-0.169,0.227-0.353,0.324-0.537c9.012-16.917,9.246-10.516-0.076-27.288
				c-2.581-4.644-2.467-7.901,2.41-10.204c10.089-4.763,14.76-11.976,11.934-23.44c-1.417-5.749,0.98-9.327,7.479-9.187
				c11.148,0.242,17.776-5.083,20.038-16.083c1.259-6.121,5.115-7.87,10.7-5.1c9.985,4.953,18.158,3.032,24.996-5.815
				c3.756-4.862,8.096-4.857,11.891,0.078c6.598,8.58,14.251,10.472,24.423,5.987c7.391-3.258,8.255-2.186,11.319,5.707
				c0.075,0.195,0.225,0.374,0.254,0.572c1.591,10.844,8.668,14.812,18.757,14.777c6.565-0.022,9.496,3.217,7.981,9.437
				c-2.705,11.107,1.6,18.256,11.469,23.016c4.827,2.328,6.266,5.956,2.663,10.63c-0.251,0.326-0.329,0.79-0.591,1.103
				c-6.853,8.176-6.589,15.989-0.241,24.698c4.955,6.8,4.217,7.639-2.628,12.409c-0.516,0.359-1.008,0.774-1.571,1.033
				c-8.071,3.719-10.745,9.453-9.358,18.589c1.589,10.457,0.794,11.131-10.254,12.075c-8.641,0.738-13.966,4.139-15.791,12.757
				c-0.426,2.007-1.07,4.42-2.482,5.654c-1.831,1.599-4.527,2.21-6.861,3.222c-0.153,0.066-0.418-0.05-0.601-0.142
				c-11.19-5.608-20.548-3.661-28.267,6.442c-2.742,3.59-6.408,3.242-9.042-0.174c-7.569-9.815-16.573-12.026-27.723-6.403
				c-4.262,2.149-7.196,0.112-8.603-4.271c-0.127-0.397-0.342-0.772-0.424-1.177c-2.297-11.181-9.086-16.075-20.543-16.257
				C180.739,288.604,180.383,287.02,181.105,274.265z M233.396,226.342c-3.634-0.482-5.669-0.859-7.721-0.993
				c-2.085-0.136-4.188-0.093-6.279-0.02c-6.519,0.227-8.591,2.269-8.661,8.729c-0.077,7.119-0.033,14.238-0.016,21.357
				c0.021,9.252,1.155,10.355,10.589,10.408c11.152,0.063,11.153,0.063,11.229-10.927c0.008-1.198,0.001-2.396,0.001-5.241
				c1.128,2.311,1.634,3.148,1.962,4.049c3.556,9.758,5.807,11.431,15.98,11.608c5.443,0.094,10.962,0.651,16.31-0.05
				c4.786-0.627,10.866-1.345,13.697-4.458c3.711-4.08,5.759-10.381,6.754-16.039c1.157-6.572,0.21-13.49,0.541-20.24
				c0.225-4.555-1.703-7.741-5.912-8.171c-5.728-0.585-11.744-0.895-17.32,0.239c-6.443,1.311-6.274-1.745-5.447-5.972
				c1.039-5.306,2.966-10.535,3.219-15.858c0.132-2.773-1.836-6.469-4.045-8.348c-3.764-3.198-6.33-1.555-7.134,3.379
				c-0.56,3.441-1.021,7.129-2.614,10.129C243.763,208.896,238.463,217.583,233.396,226.342z"/>
			<path fill="#FFFFFF" d="M275.656,377.277c-1.535-3.842-2.464-5.847-3.147-7.931c-4.026-12.264-8.015-24.541-11.969-36.828
				c-0.854-2.652-2.623-5.438,0.877-7.694c4.028-2.598,6.008-8.825,12.993-5.939c7.104,2.934,14.639,5.543,22.072-1.338
				c5.08,15.815,9.888,30.779,15.305,47.644c-5.854-1.386-10.517-1.856-14.625-3.617c-5.703-2.445-9.192-0.874-12.327,4.048
				C282.534,369.233,279.541,372.404,275.656,377.277z"/>
			<path fill="#FFFFFF" d="M188.848,363.432c4.762-14.933,9.522-29.865,14.618-45.847c7.5,6.708,15.114,4.299,22.424,1.244
				c6.952-2.906,9.277,3.177,12.789,6.292c1.384,1.227,1.294,5.187,0.591,7.515c-3.731,12.359-7.861,24.598-11.877,36.871
				c-0.619,1.889-1.363,3.737-2.707,7.393c-4.365-5.254-8.071-9.051-10.959-13.393c-2.445-3.674-4.969-4.186-8.854-2.785
				c-4.647,1.675-9.483,2.824-14.238,4.2C190.039,364.425,189.443,363.929,188.848,363.432z"/>
		</g>
	</g>
</g>
</svg>
