<?xml version="1.0" encoding="utf-8"?>
<!-- Generator: Adobe Illustrator 16.0.0, SVG Export Plug-In . SVG Version: 6.00 Build 0)  -->
<!DOCTYPE svg PUBLIC "-//W3C//DTD SVG 1.1//EN" "http://www.w3.org/Graphics/SVG/1.1/DTD/svg11.dtd">
<svg version="1.1" id="Layer_1" xmlns="http://www.w3.org/2000/svg" xmlns:xlink="http://www.w3.org/1999/xlink" x="0px" y="0px"
	 width="500px" height="500px" viewBox="0 0 500 500" enable-background="new 0 0 500 500" xml:space="preserve">
<g>
	<circle fill="#D91965" cx="250" cy="258.705" r="164.253"/>
	<g>
		<g>
			<path fill="#606262" d="M74.415,180.497l-27.084-14.378l4.661-8.781c1.823-3.434,4.38-5.658,7.667-6.67
				c3.288-1.012,6.618-0.623,9.991,1.167l4.11,2.182c3.386,1.798,5.574,4.338,6.564,7.623c0.99,3.284,0.574,6.643-1.249,10.078
				L74.415,180.497z M53.357,163.524l19.829,10.527l2.192-4.129c1.192-2.245,1.397-4.397,0.617-6.456
				c-0.781-2.06-2.329-3.705-4.646-4.935l-4.145-2.2c-2.292-1.216-4.51-1.572-6.653-1.065c-2.144,0.508-3.812,1.885-5.002,4.128
				L53.357,163.524z"/>
			<path fill="#606262" d="M96.323,144.574l-3.041,4.116l-24.662-18.22l3.041-4.116L96.323,144.574z"/>
			<path fill="#606262" d="M107.099,119.949l1.895,1.111l0.089-0.09l-1.107-1.843L97.051,97.941l3.845-3.87l14.032,29.382
				l-3.429,3.451l-29.456-13.859l3.845-3.869L107.099,119.949z"/>
			<path fill="#606262" d="M139.272,86.382l-10.993,7.688l5.554,7.939l12.752-8.92l2.354,3.365l-16.946,11.854l-17.576-25.127
				l16.826-11.77l2.354,3.365l-12.632,8.836l4.961,7.093l10.993-7.69L139.272,86.382z"/>
			<path fill="#606262" d="M159.172,76.608l5.283,11.571l-4.656,2.125l-12.735-27.894l10.308-4.706
				c3.116-1.423,5.845-1.818,8.185-1.189c2.34,0.63,4.105,2.247,5.295,4.853c0.658,1.442,0.852,2.856,0.58,4.237
				c-0.271,1.382-0.98,2.713-2.125,3.991c1.799-0.219,3.301,0.08,4.506,0.895c1.206,0.816,2.185,2.047,2.938,3.694l1.059,2.319
				c0.373,0.818,0.839,1.569,1.399,2.254c0.56,0.686,1.176,1.123,1.848,1.31l0.202,0.439l-4.79,2.188
				c-0.704-0.188-1.335-0.702-1.896-1.542c-0.562-0.84-1.039-1.693-1.437-2.562l-1.023-2.241c-0.652-1.431-1.58-2.381-2.783-2.851
				c-1.202-0.47-2.518-0.378-3.948,0.275L159.172,76.608z M157.466,72.873l5.402-2.466c1.864-0.853,3.063-1.83,3.592-2.937
				c0.528-1.105,0.458-2.394-0.213-3.862c-0.642-1.404-1.565-2.313-2.773-2.727c-1.207-0.414-2.673-0.227-4.396,0.56l-5.652,2.581
				L157.466,72.873z"/>
			<path fill="#606262" d="M208.002,64.769c-0.304-1.234-1.013-2.133-2.127-2.693c-1.114-0.562-2.914-0.867-5.398-0.918
				c-3.542-0.054-6.386-0.58-8.532-1.576c-2.146-0.997-3.507-2.662-4.08-4.993c-0.591-2.399-0.086-4.62,1.516-6.662
				c1.601-2.043,3.97-3.449,7.105-4.221c3.271-0.805,6.116-0.569,8.535,0.709c2.418,1.277,3.896,3.158,4.436,5.642l-0.011,0.133
				l-4.765,1.172c-0.376-1.527-1.198-2.636-2.468-3.329c-1.27-0.692-2.864-0.802-4.787-0.329c-1.813,0.446-3.11,1.184-3.891,2.213
				c-0.781,1.029-1.018,2.169-0.71,3.42c0.278,1.129,1.038,1.938,2.278,2.426c1.24,0.488,3.163,0.766,5.768,0.831
				c3.415,0.071,6.141,0.657,8.177,1.762c2.035,1.104,3.342,2.829,3.918,5.173c0.611,2.482,0.105,4.7-1.519,6.653
				c-1.622,1.954-4.05,3.328-7.281,4.123c-3.108,0.766-6.038,0.608-8.791-0.471c-2.753-1.08-4.446-3.059-5.083-5.939l0.011-0.133
				l4.785-1.177c0.446,1.813,1.405,3.012,2.881,3.596c1.474,0.584,3.212,0.63,5.217,0.137c1.841-0.453,3.181-1.174,4.021-2.166
				C208.047,67.158,208.313,66.033,208.002,64.769z"/>
			<path fill="#606262" d="M245.923,54.35l-13.387,0.887l0.641,9.666l15.529-1.028l0.271,4.098l-20.637,1.366l-2.025-30.597
				l20.489-1.355l0.271,4.097l-15.382,1.018l0.571,8.637l13.387-0.887L245.923,54.35z"/>
			<path fill="#606262" d="M298.804,66.301c0.27-1.242,0.027-2.361-0.728-3.354c-0.754-0.993-2.236-2.059-4.446-3.196
				c-3.157-1.604-5.481-3.326-6.972-5.165c-1.49-1.839-1.98-3.931-1.472-6.277c0.523-2.415,1.953-4.188,4.289-5.319
				c2.336-1.131,5.081-1.354,8.237-0.669c3.293,0.714,5.745,2.175,7.356,4.387c1.61,2.209,2.112,4.549,1.505,7.018l-0.067,0.114
				l-4.796-1.041c0.333-1.537,0.081-2.895-0.754-4.075c-0.836-1.18-2.222-1.98-4.155-2.399c-1.826-0.396-3.314-0.303-4.468,0.278
				s-1.866,1.501-2.14,2.761c-0.247,1.136,0.08,2.196,0.98,3.18c0.899,0.984,2.505,2.077,4.815,3.281
				c3.037,1.564,5.227,3.289,6.57,5.174c1.344,1.887,1.76,4.01,1.248,6.371c-0.542,2.498-1.972,4.266-4.287,5.308
				c-2.316,1.042-5.101,1.21-8.353,0.505c-3.129-0.679-5.691-2.107-7.69-4.287c-1.998-2.179-2.65-4.702-1.956-7.568l0.067-0.114
				l4.815,1.044c-0.396,1.825-0.06,3.324,1.008,4.496c1.067,1.173,2.609,1.978,4.627,2.416c1.852,0.402,3.373,0.343,4.563-0.178
				C297.794,68.468,298.527,67.572,298.804,66.301z"/>
			<path fill="#606262" d="M344.53,62.806l-8.565-3.535l-10.134,24.547l-4.729-1.952l10.133-24.548l-8.565-3.536l1.567-3.796
				l21.861,9.024L344.53,62.806z"/>
			<path fill="#606262" d="M362.394,85.432l14.279-8.566l4.809,3.077l-19.685,11.032l-5.8,9.065l-4.293-2.746l5.947-9.296
				l1.76-22.175l4.809,3.077L362.394,85.432z"/>
			<path fill="#606262" d="M380.683,113.757l10.4,9.505l-2.771,3.031l-14.177-12.958l20.688-22.633l3.777,3.453L380.683,113.757z"/>
			<path fill="#606262" d="M418.913,141.632l-8.252-10.578l-7.638,5.96l9.573,12.27l-3.238,2.526l-12.721-16.307l24.176-18.861
				l12.631,16.19l-3.238,2.525l-9.482-12.153l-6.824,5.324l8.252,10.576L418.913,141.632z"/>
			<path fill="#606262" d="M430.779,173.412c1.126-0.591,1.826-1.496,2.104-2.712c0.276-1.215,0.14-3.036-0.409-5.46
				c-0.799-3.45-0.974-6.336-0.522-8.661s1.74-4.044,3.864-5.162c2.188-1.15,4.465-1.194,6.832-0.131
				c2.368,1.063,4.303,3.022,5.807,5.881c1.568,2.982,2.024,5.801,1.366,8.455c-0.658,2.655-2.128,4.543-4.41,5.663l-0.132,0.021
				l-2.284-4.343c1.392-0.731,2.271-1.797,2.638-3.196s0.09-2.974-0.832-4.726c-0.869-1.653-1.897-2.734-3.084-3.245
				c-1.187-0.509-2.35-0.464-3.49,0.135c-1.029,0.542-1.632,1.473-1.807,2.795c-0.176,1.322,0.019,3.254,0.581,5.797
				c0.753,3.333,0.839,6.119,0.257,8.361s-1.941,3.924-4.079,5.048c-2.262,1.189-4.535,1.232-6.822,0.127
				c-2.286-1.105-4.204-3.131-5.753-6.075c-1.49-2.833-2.043-5.716-1.657-8.646c0.385-2.931,1.898-5.053,4.541-6.363l0.131-0.022
				l2.295,4.363c-1.653,0.869-2.586,2.089-2.798,3.661c-0.213,1.572,0.161,3.27,1.122,5.097c0.883,1.677,1.906,2.805,3.07,3.382
				C428.471,174.032,429.628,174.018,430.779,173.412z"/>
		</g>
	</g>
	<g>
		<defs>
			<path id="SVGID_5_" d="M277.003,177.133c-14.404,19.371-23.978,66.347-37.254,108.567c-15.013,41.388-55.839,31.66-55.749,1.599
				c0.082-27.242,49.292-44.039,58.524-46.951c0.731-0.229,1.022-1.104,0.577-1.729l-0.851-1.206
				c-0.318-0.443-0.86-0.652-1.39-0.522c-3.789,0.913-19.647,5.168-42.569,17.214c-36.98,20.831-34.326,68.115-1.736,74.965
				c32.596,6.854,54.585-11.864,64.001-40.452c9.42-28.583,19.262-85.046,31.961-100.641c12.7-15.59,29.8,2.209,21.788,14.705
				c-6.734,10.494-23.176,19.119-28.27,21.614c-0.781,0.38-0.973,1.385-0.415,2.032l0.649,0.756
				c0.537,0.614,1.412,0.811,2.158,0.478l22.811-10.228c24.327-12.901,16.821-33.794,10.404-41.348
				c-3.721-4.387-13.31-9.822-23.52-9.819C290.747,166.167,283.042,169.008,277.003,177.133"/>
		</defs>
		<use xlink:href="#SVGID_5_"  overflow="visible" fill="#FFFFFF"/>
		<clipPath id="SVGID_2_">
			<use xlink:href="#SVGID_5_"  overflow="visible"/>
		</clipPath>
		
			<rect x="126.847" y="129.582" transform="matrix(-0.7352 0.6779 -0.6779 -0.7352 601.2628 267.1934)" clip-path="url(#SVGID_2_)" fill="#FFFFFF" width="243.185" height="242.926"/>
	</g>
</g>
</svg>
