<?xml version="1.0" encoding="utf-8"?>
<!-- Generator: Adobe Illustrator 16.0.0, SVG Export Plug-In . SVG Version: 6.00 Build 0)  -->
<!DOCTYPE svg PUBLIC "-//W3C//DTD SVG 1.1//EN" "http://www.w3.org/Graphics/SVG/1.1/DTD/svg11.dtd">
<svg version="1.1" id="Layer_1" xmlns="http://www.w3.org/2000/svg" xmlns:xlink="http://www.w3.org/1999/xlink" x="0px" y="0px"
	 width="500px" height="500px" viewBox="0 0 500 500" enable-background="new 0 0 500 500" xml:space="preserve">
<g>
	<circle fill="#D91965" cx="250.152" cy="258.705" r="164.253"/>
	<g>
		<g>
			<path fill="#606262" d="M83.909,137.811l-7.51,11.116l8.027,5.424l8.713-12.896l3.402,2.297L84.964,160.89l-25.408-17.167
				l11.496-17.014l3.402,2.299l-8.631,12.773l7.172,4.846l7.512-11.116L83.909,137.811z"/>
			<path fill="#606262" d="M110.991,117.187l-8.377,8.598l3.424,6.747l-3.615,3.711l-14.102-29.468l3.381-3.47l29.738,13.419
				l-3.631,3.725L110.991,117.187z M100.581,121.746l6.334-6.501l-12.484-5.958l-0.088,0.09L100.581,121.746z"/>
			<path fill="#606262" d="M139.603,93.318c-0.732-1.039-1.719-1.617-2.961-1.734c-1.24-0.117-3.029,0.254-5.361,1.111
				c-3.318,1.239-6.158,1.786-8.521,1.638c-2.361-0.147-4.234-1.202-5.617-3.165c-1.424-2.019-1.762-4.271-1.014-6.757
				c0.746-2.484,2.439-4.658,5.08-6.519c2.754-1.94,5.49-2.758,8.207-2.449c2.717,0.311,4.779,1.524,6.186,3.641l0.039,0.127
				l-4.012,2.827c-0.906-1.284-2.076-2.019-3.51-2.201c-1.434-0.183-2.961,0.295-4.578,1.436c-1.527,1.076-2.467,2.236-2.818,3.477
				c-0.354,1.244-0.158,2.391,0.584,3.444c0.67,0.951,1.672,1.428,3.006,1.429c1.332,0.004,3.225-0.438,5.674-1.325
				c3.207-1.178,5.959-1.624,8.256-1.337c2.299,0.286,4.143,1.417,5.535,3.391c1.471,2.089,1.807,4.338,1.008,6.749
				c-0.801,2.411-2.561,4.575-5.281,6.491c-2.615,1.845-5.402,2.765-8.359,2.763c-2.957-0.003-5.254-1.23-6.896-3.681l-0.037-0.127
				l4.027-2.839c1.076,1.526,2.406,2.292,3.992,2.3c1.586,0.007,3.221-0.583,4.908-1.772c1.549-1.092,2.535-2.252,2.957-3.483
				C140.517,95.526,140.353,94.38,139.603,93.318z"/>
			<path fill="#606262" d="M162.669,71.679l0.506-16.643l5.186-2.385l-1.35,22.525l4.498,9.777l-4.631,2.129l-4.611-10.026
				l-17.709-13.46l5.184-2.385L162.669,71.679z"/>
			<path fill="#606262" d="M214.487,58.587l1.758,12.598l-5.068,0.707l-4.236-30.37l11.221-1.567
				c3.393-0.473,6.121-0.073,8.184,1.197c2.063,1.272,3.293,3.326,3.688,6.163c0.219,1.571,0.002,2.981-0.652,4.228
				c-0.656,1.247-1.715,2.32-3.176,3.218c1.785,0.303,3.139,1.019,4.061,2.144c0.922,1.126,1.51,2.586,1.76,4.38l0.354,2.524
				c0.123,0.89,0.355,1.744,0.697,2.56c0.34,0.818,0.807,1.413,1.396,1.783l0.066,0.48l-5.215,0.728
				c-0.619-0.381-1.078-1.054-1.377-2.02c-0.297-0.964-0.512-1.92-0.643-2.865l-0.342-2.441c-0.217-1.557-0.836-2.733-1.852-3.525
				c-1.02-0.795-2.307-1.083-3.863-0.866L214.487,58.587z M213.921,54.519l5.881-0.82c2.031-0.284,3.457-0.88,4.281-1.789
				c0.822-0.909,1.121-2.162,0.898-3.762c-0.213-1.529-0.84-2.665-1.879-3.406c-1.039-0.74-2.496-0.98-4.373-0.719l-6.154,0.859
				L213.921,54.519z"/>
			<path fill="#606262" d="M266.767,54.968l-13.408-0.466l-0.334,9.681l15.553,0.541l-0.143,4.104l-20.67-0.718l1.066-30.644
				l20.521,0.711l-0.145,4.105l-15.406-0.536l-0.299,8.651l13.406,0.465L266.767,54.968z"/>
			<path fill="#606262" d="M307.29,49.01l-9.064-1.931l-5.535,25.973l-5.004-1.067l5.533-25.974l-9.061-1.931l0.855-4.016
				l23.131,4.929L307.29,49.01z"/>
			<path fill="#606262" d="M346.661,59.275l-7.885,18.981c-1.305,3.139-3.328,5.121-6.074,5.949
				c-2.748,0.828-5.773,0.555-9.08-0.818c-3.24-1.348-5.516-3.28-6.826-5.801c-1.309-2.521-1.316-5.344-0.018-8.468l7.887-18.981
				l4.727,1.963l-7.881,18.967c-0.822,1.983-0.885,3.704-0.184,5.165c0.701,1.461,1.99,2.582,3.871,3.363
				c1.945,0.809,3.701,0.953,5.27,0.435c1.568-0.518,2.764-1.768,3.588-3.751l7.881-18.967L346.661,59.275z"/>
			<path fill="#606262" d="M358.692,86.587l-7.025,10.604l-4.266-2.826l16.934-25.563l9.445,6.257
				c2.855,1.892,4.635,3.998,5.34,6.316c0.703,2.319,0.266,4.673-1.316,7.06c-0.877,1.323-1.973,2.234-3.289,2.736
				c-1.316,0.5-2.82,0.602-4.512,0.307c1.137,1.41,1.68,2.843,1.625,4.297c-0.055,1.455-0.582,2.938-1.58,4.446l-1.408,2.125
				c-0.496,0.75-0.889,1.543-1.174,2.382c-0.285,0.837-0.33,1.591-0.133,2.261l-0.268,0.403l-4.391-2.907
				c-0.213-0.696-0.109-1.505,0.307-2.426c0.416-0.919,0.887-1.778,1.414-2.574l1.361-2.054c0.867-1.31,1.184-2.601,0.945-3.87
				c-0.236-1.268-1.012-2.337-2.32-3.205L358.692,86.587z M360.96,83.163l4.951,3.281c1.709,1.131,3.172,1.629,4.391,1.494
				c1.219-0.136,2.273-0.877,3.166-2.223c0.854-1.288,1.135-2.554,0.848-3.796c-0.289-1.243-1.223-2.389-2.803-3.435l-5.18-3.432
				L360.96,83.163z"/>
			<path fill="#606262" d="M394.222,132.52l-3.627-3.582l6.055-25.488l-0.121-0.058l-15.703,15.897l-3.641-3.596l21.549-21.816
				l3.641,3.596l-6.037,25.473l0.119,0.06l15.688-15.883l3.627,3.582L394.222,132.52z"/>
			<path fill="#606262" d="M419.511,153.271c1.051-0.718,1.643-1.697,1.777-2.937c0.133-1.241-0.211-3.033-1.037-5.377
				c-1.191-3.335-1.699-6.182-1.518-8.543c0.18-2.36,1.26-4.217,3.242-5.573c2.039-1.395,4.297-1.701,6.771-0.918
				c2.475,0.782,4.623,2.506,6.447,5.172c1.9,2.781,2.68,5.527,2.332,8.241c-0.348,2.711-1.59,4.757-3.729,6.133l-0.127,0.037
				l-2.771-4.051c1.299-0.887,2.049-2.047,2.252-3.479c0.203-1.431-0.254-2.963-1.371-4.598c-1.055-1.542-2.201-2.497-3.438-2.866
				c-1.238-0.37-2.389-0.191-3.453,0.536c-0.959,0.657-1.449,1.652-1.471,2.985c-0.023,1.332,0.393,3.231,1.244,5.692
				c1.135,3.222,1.541,5.981,1.221,8.274c-0.318,2.295-1.475,4.123-3.469,5.486c-2.109,1.442-4.363,1.747-6.762,0.913
				c-2.398-0.834-4.537-2.625-6.416-5.371c-1.807-2.642-2.689-5.441-2.645-8.398c0.045-2.956,1.303-5.237,3.777-6.844l0.129-0.037
				l2.781,4.068c-1.541,1.054-2.328,2.375-2.357,3.959c-0.029,1.585,0.537,3.229,1.703,4.933c1.07,1.565,2.217,2.567,3.439,3.007
				C417.29,154.153,418.438,154.006,419.511,153.271z"/>
		</g>
	</g>
	<g id="ZQ06GV_1_">
		<g>
			<path fill="#FFFFFF" d="M168.825,188.229c6.406,6.417,12.393,12.412,18.579,18.608c15.011-16.141,33.034-25.578,54.88-27.063
				c18.964-1.29,36.313,3.446,51.873,14.397c29.843,21.005,41.982,58.746,29.637,93.061c-12.846,35.702-46.496,53.878-75.53,53.253
				c0-11.538,0-23.09,0-35.072c14.421-0.689,26.597-6.332,35.573-18.025c6.088-7.931,9.097-16.957,9.159-26.99
				c0.125-19.986-12.476-37.299-31.679-43.409c-17.729-5.64-38.347,0.942-48.822,16.408c6.027,5.354,12.239,10.874,18.452,16.393
				c-0.273,0.381-0.546,0.761-0.818,1.142c-20.308,0-40.616,0-61.304,0C168.825,230.28,168.825,209.534,168.825,188.229z"/>
		</g>
	</g>
</g>
</svg>
