<?xml version="1.0" encoding="utf-8"?>
<!-- Generator: Adobe Illustrator 16.0.0, SVG Export Plug-In . SVG Version: 6.00 Build 0)  -->
<!DOCTYPE svg PUBLIC "-//W3C//DTD SVG 1.1//EN" "http://www.w3.org/Graphics/SVG/1.1/DTD/svg11.dtd">
<svg version="1.1" id="Layer_1" xmlns="http://www.w3.org/2000/svg" xmlns:xlink="http://www.w3.org/1999/xlink" x="0px" y="0px"
	 width="500px" height="500px" viewBox="0 0 500 500" enable-background="new 0 0 500 500" xml:space="preserve">
<g>
	<circle fill="#D91965" cx="252.826" cy="252.235" r="164.253"/>
	<g>
		<g>
			<path fill="#606262" d="M45.08,283.452l1.857,13.308l12.953-1.808l0.707,5.068l-30.369,4.238l-2.862-20.503l4.067-0.568
				l2.154,15.435l9.282-1.295l-1.857-13.307L45.08,283.452z"/>
			<path fill="#606262" d="M44.209,261.479l12.716,0.334l-0.134,5.115l-30.653-0.805l0.298-11.327
				c0.09-3.424,0.932-6.05,2.524-7.877c1.594-1.825,3.822-2.7,6.685-2.626c1.586,0.042,2.94,0.489,4.063,1.34
				c1.123,0.85,2.007,2.072,2.653,3.662c0.592-1.712,1.52-2.931,2.782-3.656c1.262-0.725,2.798-1.064,4.608-1.017l2.548,0.067
				c0.898,0.023,1.778-0.065,2.641-0.268c0.862-0.202,1.524-0.564,1.987-1.085l0.484,0.013l-0.139,5.263
				c-0.478,0.55-1.216,0.892-2.218,1.027c-1.001,0.134-1.978,0.19-2.933,0.165l-2.463-0.064c-1.572-0.042-2.833,0.375-3.783,1.249
				s-1.445,2.096-1.487,3.668L44.209,261.479z M40.104,261.371l0.157-5.937c0.054-2.05-0.299-3.555-1.061-4.516
				c-0.762-0.959-1.95-1.462-3.563-1.505c-1.544-0.04-2.767,0.392-3.668,1.295c-0.901,0.903-1.377,2.302-1.427,4.197l-0.164,6.211
				L40.104,261.371z"/>
			<path fill="#606262" d="M52.08,204.301c3.659,0.817,6.434,2.643,8.326,5.475c1.893,2.833,2.43,6.077,1.613,9.736
				c-0.802,3.59-2.655,6.237-5.561,7.939c-2.905,1.703-6.187,2.146-9.846,1.331l-5.385-1.204c-3.645-0.813-6.423-2.611-8.334-5.39
				c-1.911-2.778-2.468-5.956-1.669-9.532c0.817-3.659,2.689-6.37,5.614-8.133c2.926-1.762,6.211-2.238,9.856-1.424L52.08,204.301z
				 M45.542,208.063c-2.494-0.557-4.691-0.346-6.593,0.631c-1.901,0.978-3.106,2.604-3.614,4.879
				c-0.49,2.192-0.076,4.104,1.243,5.737c1.319,1.633,3.226,2.728,5.719,3.285l5.427,1.212c2.521,0.563,4.729,0.387,6.624-0.528
				s3.088-2.475,3.582-4.682c0.511-2.288,0.112-4.272-1.195-5.953c-1.308-1.68-3.229-2.803-5.764-3.37L45.542,208.063z"/>
			<path fill="#606262" d="M43.384,175.223l25.108,1.946l0.053-0.115l-17.657-17.968l2.798-6.015l27.803,12.931l-2.158,4.641
				l-9.471-4.405l-11.837-6.062l-0.072,0.105l17.704,18.268l-1.448,3.112l-25.302-1.78l-0.034,0.123l12.206,5.119l9.471,4.405
				l-2.158,4.641l-27.804-12.932L43.384,175.223z"/>
			<path fill="#606262" d="M95.759,104.635l-6.24,6.851l19.633,17.883l-3.447,3.783l-19.633-17.883l-6.24,6.85l-3.036-2.765
				l15.926-17.484L95.759,104.635z"/>
			<path fill="#606262" d="M143.488,99.895l-4.069,3.069l-7.874-10.443l-10.964,8.267l7.874,10.442l-4.086,3.082l-18.461-24.483
				l4.085-3.081l8.115,10.762l10.964-8.266l-8.115-10.763l4.069-3.068L143.488,99.895z"/>
			<path fill="#606262" d="M166.781,71.745l-12.028,5.941l4.29,8.686l13.954-6.892l1.819,3.682l-18.543,9.158l-13.579-27.494
				l18.411-9.092l1.818,3.682l-13.822,6.827l3.833,7.761l12.028-5.94L166.781,71.745z"/>
			<path fill="#606262" d="M228.789,69.138l-5.022,0.87l-2.232-12.885l-13.529,2.342l2.232,12.887l-5.042,0.874l-5.233-30.214
				l5.043-0.873l2.3,13.281l13.53-2.344l-2.301-13.281l5.022-0.87L228.789,69.138z"/>
			<path fill="#606262" d="M267.769,56.105c-0.092,3.747-1.343,6.823-3.754,9.229s-5.49,3.563-9.238,3.471
				c-3.678-0.09-6.633-1.393-8.868-3.914c-2.234-2.519-3.306-5.653-3.214-9.4l0.134-5.516c0.092-3.733,1.315-6.807,3.67-9.221
				c2.355-2.415,5.364-3.577,9.028-3.487c3.748,0.092,6.77,1.402,9.068,3.929c2.298,2.528,3.401,5.659,3.31,9.392L267.769,56.105z
				 M262.81,50.422c0.062-2.554-0.571-4.67-1.899-6.346c-1.328-1.675-3.158-2.541-5.487-2.598c-2.246-0.055-4.042,0.723-5.387,2.333
				c-1.346,1.61-2.05,3.692-2.112,6.247l-0.136,5.559c-0.063,2.583,0.538,4.715,1.803,6.395c1.265,1.683,3.027,2.551,5.287,2.606
				c2.344,0.057,4.213-0.719,5.607-2.329c1.395-1.608,2.124-3.712,2.188-6.308L262.81,50.422z"/>
			<path fill="#606262" d="M310.403,45.606l-4.485,20.06c-0.741,3.316-2.393,5.619-4.954,6.909c-2.562,1.291-5.59,1.545-9.083,0.764
				c-3.426-0.766-6.002-2.276-7.727-4.533c-1.726-2.256-2.22-5.035-1.481-8.337l4.485-20.059l4.994,1.116L287.67,61.57
				c-0.468,2.094-0.231,3.8,0.711,5.118c0.943,1.318,2.407,2.198,4.394,2.644c2.056,0.459,3.811,0.298,5.266-0.483
				c1.455-0.781,2.417-2.22,2.885-4.314l4.482-20.044L310.403,45.606z"/>
			<path fill="#606262" d="M335.596,79.458c0.506-1.167,0.485-2.311-0.062-3.433c-0.547-1.12-1.794-2.454-3.741-3.998
				c-2.786-2.188-4.732-4.327-5.836-6.421c-1.104-2.092-1.179-4.241-0.225-6.443c0.983-2.267,2.729-3.729,5.241-4.385
				c2.51-0.656,5.248-0.342,8.21,0.941c3.092,1.341,5.213,3.252,6.364,5.732c1.151,2.481,1.189,4.874,0.114,7.177l-0.089,0.099
				l-4.502-1.951c0.625-1.443,0.643-2.824,0.052-4.144c-0.592-1.32-1.795-2.374-3.611-3.161c-1.713-0.743-3.192-0.942-4.437-0.595
				c-1.244,0.346-2.122,1.111-2.635,2.293c-0.462,1.067-0.348,2.17,0.344,3.31c0.691,1.14,2.054,2.524,4.087,4.154
				c2.675,2.123,4.488,4.241,5.441,6.352c0.951,2.111,0.947,4.275-0.013,6.49c-1.017,2.345-2.762,3.803-5.236,4.375
				c-2.475,0.573-5.238,0.198-8.291-1.126c-2.938-1.273-5.175-3.171-6.712-5.697c-1.538-2.525-1.688-5.128-0.451-7.805l0.089-0.099
				l4.521,1.959c-0.742,1.714-0.704,3.25,0.115,4.607c0.819,1.357,2.176,2.446,4.07,3.268c1.739,0.753,3.243,0.99,4.512,0.71
				S335.079,80.65,335.596,79.458z"/>
			<path fill="#606262" d="M372.063,94.162l-11.179-7.416l-5.355,8.074l12.97,8.603l-2.271,3.421l-17.233-11.432l16.951-25.553
				l17.11,11.352l-2.27,3.421l-12.847-8.521l-4.784,7.213l11.179,7.416L372.063,94.162z"/>
			<path fill="#606262" d="M415.15,138.249c-2.862,2.42-5.993,3.529-9.393,3.325c-3.4-0.205-6.311-1.737-8.732-4.599
				c-2.375-2.809-3.364-5.885-2.965-9.229c0.399-3.343,2.029-6.226,4.891-8.646l4.213-3.564c2.851-2.412,5.961-3.54,9.331-3.383
				c3.369,0.157,6.237,1.635,8.603,4.432c2.422,2.862,3.451,5.992,3.087,9.389c-0.363,3.397-1.97,6.301-4.822,8.713L415.15,138.249z
				 M416.104,130.767c1.951-1.651,3.111-3.529,3.481-5.635c0.37-2.106-0.197-4.05-1.702-5.829c-1.451-1.714-3.226-2.541-5.323-2.477
				c-2.097,0.064-4.122,0.922-6.072,2.572l-4.245,3.591c-1.973,1.668-3.167,3.534-3.583,5.596c-0.417,2.062,0.105,3.956,1.565,5.683
				c1.515,1.79,3.336,2.672,5.465,2.646c2.129-0.027,4.185-0.879,6.168-2.557L416.104,130.767z"/>
			<path fill="#606262" d="M433.702,167.412l-6.655-11.672l-11.361,6.478l-2.535-4.446l26.638-15.188l10.254,17.984l-3.567,2.035
				l-7.719-13.54l-8.143,4.643l6.655,11.673L433.702,167.412z"/>
			<path fill="#606262" d="M440.577,228.822l-1.16-4.962l18.702-18.344l-0.07-0.113l-21.757,5.086l-1.166-4.983l29.859-6.979
				l1.164,4.983l-18.682,18.339l0.07,0.113l21.737-5.083l1.16,4.964L440.577,228.822z"/>
			<path fill="#606262" d="M450.23,259.857l-0.464-11.995l-7.25-2.165l-0.201-5.176l31.077,10.072l0.187,4.84l-30.209,12.318
				l-0.201-5.197L450.23,259.857z M454.094,249.17l0.352,9.07l12.918-4.948l-0.006-0.125L454.094,249.17z"/>
			<path fill="#606262" d="M449.205,303.079l-0.132,0.021c-3.078-0.4-5.426-1.767-7.045-4.101s-2.169-5.251-1.648-8.75
				c0.525-3.542,2.144-6.244,4.854-8.104c2.71-1.861,5.92-2.517,9.628-1.966l5.771,0.858c3.694,0.547,6.576,2.094,8.647,4.637
				c2.07,2.544,2.847,5.565,2.326,9.064c-0.532,3.583-1.893,6.267-4.08,8.049c-2.188,1.783-4.868,2.41-8.04,1.882l-0.118-0.06
				l0.726-4.896c2.042,0.303,3.714-0.013,5.017-0.947s2.114-2.479,2.435-4.632c0.308-2.068-0.268-3.833-1.725-5.291
				c-1.457-1.459-3.42-2.371-5.89-2.738l-5.807-0.863c-2.498-0.371-4.658-0.056-6.479,0.944c-1.822,0.999-2.89,2.555-3.203,4.667
				c-0.312,2.096,0.013,3.77,0.974,5.02c0.96,1.25,2.465,2.027,4.514,2.331L449.205,303.079z"/>
		</g>
	</g>
	<g>
		<path fill="#FFFFFF" d="M216.384,178.31c1.333-3.314,0.651-5.641-2.143-7.076c-3.335-1.713-7.011-2.302-10.11,0.161
			c-3.219,2.558-4.544,6.136-3.193,10.322c1.984,6.147,6.491,9.643,12.477,11.143c4.818,1.208,9.767,1.945,14.689,2.683
			c11.006,1.65,14.417,5.322,14.939,16.457c0.084,1.797,0.012,3.602,0.012,5.02c3.432-1.806,6.533-4.692,9.677-4.74
			c3.123-0.046,6.289,2.763,9.38,4.292c0.333-2.803,0.603-6.446,1.229-10.027c1.102-6.291,4.039-9.037,10.353-10.194
			c6.017-1.102,12.059-2.102,18.027-3.427c6.417-1.425,11.12-5.089,13.059-11.597c1.183-3.972-0.105-7.489-3.292-9.911
			c-3.14-2.385-6.808-1.923-10.123-0.191c-2.688,1.404-3.672,3.701-2.08,7.143c0.76-0.653,1.181-1.293,1.726-1.428
			c1.364-0.336,2.861-0.771,4.141-0.469c0.47,0.111,1.06,2.733,0.577,3.24c-1,1.05-3.196,2.375-3.983,1.938
			c-1.959-1.09-4.143-2.852-4.818-4.828c-0.518-1.514,0.643-4.202,1.903-5.612c4.02-4.503,11.755-4.23,15.518,0.59
			c3.704,4.745,5.443,10.209,2.289,15.917c-1.747,3.16-1.222,5.29,1.387,7.39c1.106,0.891,2.119,1.923,3.056,2.995
			c2.017,2.307,3.829,2.892,6.972,1.258c5.366-2.79,10.828-1.661,15.677,1.867c3.846,2.799,4.872,6.993,3.431,11.072
			c-0.92,2.605-3.358,5.319-5.824,6.482c-1.407,0.664-4.437-1.417-6.33-2.812c-0.789-0.582-0.959-2.729-0.595-3.912
			c0.272-0.883,1.805-1.761,2.871-1.896c0.863-0.109,2.292,0.681,2.682,1.464c0.358,0.723-0.173,2.044-0.615,2.956
			c-0.335,0.69-1.146,1.149-1.876,1.833c3.475,2.571,5.635,0.684,7.155-1.898c2.014-3.42,2.264-7.062-0.386-10.4
			c-2.408-3.033-7.425-4.116-11.363-2.398c-4.868,2.123-8.219,5.829-9.445,10.941c-1.457,6.077-2.434,12.274-3.488,18.441
			c-1.34,7.839-4.719,11.097-12.687,11.959c-2.671,0.289-5.345,0.556-7.69,0.799c1.243,2.833,3.157,5.398,3.32,8.071
			c0.166,2.707-1.4,5.519-2.328,8.697c1.786,0.253,4.11,0.64,6.448,0.903c8.344,0.937,11.622,4.031,12.928,12.126
			c0.838,5.198,1.691,10.397,2.719,15.559c1.235,6.209,4.343,11.15,10.388,13.717c3.792,1.61,8.656,0.555,11.046-2.274
			c2.755-3.261,2.562-6.907,0.726-10.407c-1.413-2.691-3.568-4.43-7.296-2.368c0.647,0.75,1.303,1.241,1.58,1.893
			c0.441,1.044,1.185,2.507,0.783,3.218c-0.475,0.84-2.207,1.666-3.074,1.411c-1.076-0.315-2.736-2.029-2.546-2.643
			c0.628-2.023,1.586-4.859,3.147-5.448c1.97-0.743,5.21-0.343,6.925,0.906c4.114,2.995,4.415,10.318,1.207,14.321
			c-4.292,5.357-13.268,6.751-19.004,2.842c-6.271-4.274-9.004-10.851-11.219-17.72c-0.655-2.032-1.164-4.113-1.854-6.133
			c-1.841-5.391-5.368-9.018-11.075-10.221c-5.281-1.113-10.531-2.583-15.874-3.136c-5.383-0.558-8.792,2.418-8.379,7.766
			c0.511,6.617,1.823,13.249,3.551,19.668c1.097,4.077,4.985,5.928,8.923,7.299c6.165,2.147,12.64,3.826,18.274,6.973
			c9.699,5.417,11.871,14.531,6.402,22.741c-3.561,5.347-10.657,6.492-15.751,2.543c-4.275-3.313-3.797-8.891,1.188-10.913
			c1.256-0.509,3.396,0.26,4.673,1.12c0.564,0.38-0.012,2.451-0.07,3.755c-1.575-0.317-3.154-0.613-4.72-0.968
			c-0.364-0.082-0.683-0.364-1.346-0.735c-1.588,3.126-0.65,5.977,2.04,6.702c3.169,0.854,7.179,1.122,10.053-0.129
			c3.371-1.467,4.496-5.493,3.55-9.283c-1.649-6.607-6.293-10.445-12.687-11.956c-6.085-1.438-12.284-2.413-18.45-3.488
			c-6.217-1.084-9.257-3.875-10.416-10.174c-0.614-3.343-0.876-6.751-1.218-9.5c-3.042,1.393-6.229,4.006-9.39,3.974
			c-3.148-0.032-6.269-2.718-9.317-4.2c-0.326,2.593-0.589,6.093-1.233,9.521c-1.284,6.832-3.794,9.142-10.618,10.382
			c-6.022,1.094-12.064,2.11-18.038,3.432c-5.939,1.314-10.262,4.811-12.475,10.593c-1.557,4.066-0.455,7.73,2.62,10.507
			c2.976,2.688,6.626,2.197,10.071,0.768c3.169-1.315,3.934-3.732,2.782-7.403c-0.933,0.748-1.461,1.49-2.117,1.629
			c-1.35,0.286-2.884,0.592-4.101,0.178c-0.498-0.169-0.917-2.739-0.408-3.243c1.039-1.029,2.894-2.166,4.126-1.905
			c5.041,1.064,6.446,7.064,2.726,10.712c-4.451,4.364-12.238,3.924-15.889-1.206c-3.498-4.915-4.981-10.414-1.718-16.021
			c1.579-2.713,0.945-4.464-1.038-6.32c-1.146-1.073-2.32-2.141-3.305-3.355c-2.263-2.789-4.496-2.893-7.77-1.24
			c-5.151,2.601-10.285,1.309-14.914-1.903c-3.731-2.588-4.604-6.338-4.015-10.583c0.636-4.58,4.014-7.772,7.845-7.485
			c3.097,0.231,5.858,3.057,5.387,5.957c-0.184,1.131-1.278,2.553-2.31,2.969c-0.839,0.338-2.86-0.349-3.171-1.083
			c-0.395-0.932,0.311-2.408,0.738-3.578c0.209-0.574,0.859-0.986,1.451-1.624c-3.236-2.303-5.307-0.809-6.947,1.625
			c-2.343,3.477-2.167,7.919,0.224,10.809c2.47,2.985,7.396,4.087,11.376,2.332c6.002-2.647,9.055-7.599,10.236-13.832
			c0.954-5.036,1.799-10.093,2.65-15.147c1.429-8.485,4.614-11.459,13.19-12.343c2.252-0.232,4.49-0.615,7.268-1.003
			c-4.817-5.771-4.824-11.104,0.973-16.377c-4.402-0.665-8.191-1.096-11.92-1.835c-4.933-0.979-8.092-3.771-8.914-9.029
			c-0.944-6.042-2.112-12.052-3.293-18.054c-1.796-9.124-8.595-15.126-15.965-14.107c-3.538,0.489-6.674,2.318-6.9,5.932
			c-0.187,2.98,0.907,6.271,2.272,9.005c0.561,1.122,3.326,1.141,5.088,1.662c0.17-0.433,0.339-0.866,0.509-1.299
			c-0.44-0.488-1.064-0.906-1.281-1.478c-0.437-1.157-1.277-2.896-0.808-3.484c0.676-0.849,2.59-1.472,3.566-1.104
			c0.958,0.361,2.213,2.407,1.917,3.142c-0.788,1.959-2.022,4.587-3.673,5.126c-1.879,0.613-4.95-0.079-6.542-1.379
			c-4.513-3.686-4.134-11.63,0.276-15.587c5.992-5.376,15.908-5.09,20.982,1.495c3.397,4.409,5.483,9.867,7.903,14.976
			c1.332,2.811,1.924,5.974,3.269,8.778c0.831,1.732,2.152,3.608,3.763,4.521c7.444,4.223,15.64,6.082,24.128,5.982
			c3.991-0.047,6.635-4.018,5.839-8.468c-1.051-5.872-2.46-11.702-4.102-17.439c-1.52-5.311-5.877-7.697-10.768-9.516
			c-5.711-2.123-11.708-3.927-16.829-7.088c-8.58-5.295-10.295-13.321-5.635-21.327c3.421-5.878,11.051-7.306,16.249-3.041
			c4.214,3.458,3.614,8.955-1.444,10.87c-1.247,0.472-3.357-0.396-4.602-1.295c-0.539-0.389,0.109-2.421,0.218-3.707
			c1.488,0.265,2.989,0.479,4.458,0.825C215.249,177.31,215.629,177.77,216.384,178.31z M220.115,252.348
			c-0.213,4.804,3.066,8.249,7.975,8.379c11.157,0.295,14.379,3.407,15.072,14.555c0.362,5.828,4.38,10.019,9.607,10.023
			c5.514,0.005,9.377-4.152,9.611-10.339c0.372-9.854,3.883-13.497,13.712-14.208c0.852-0.062,1.836,0.241,2.542-0.088
			c1.797-0.837,4.077-1.524,5.09-3.005c4.226-6.176,0.673-13.257-6.673-13.818c-11.338-0.866-13.827-3.385-14.682-15.017
			c-0.307-4.18-2.55-6.86-6.312-8.305c-3.682-1.414-7.394-0.821-9.764,2.161c-1.715,2.157-2.804,5.26-3.064,8.044
			c-0.785,8.416-2.905,11.098-11.108,12.526c-1.261,0.219-2.523,0.472-3.796,0.576C223.385,244.237,220.336,247.372,220.115,252.348
			z M277.463,237.593c3.427-0.743,8.255-1.962,13.148-2.811c7.519-1.305,11.491-5.94,13.714-12.96
			c1.706-5.386,4.28-10.491,6.254-15.801c0.458-1.231,0.607-3.228-0.08-4.11c-1.913-2.455-4.229-4.642-6.63-6.641
			c-0.741-0.617-2.431-0.708-3.408-0.327c-6.339,2.471-12.551,5.271-18.906,7.699c-4.75,1.814-8.06,4.917-9.405,9.752
			c-1.483,5.334-2.849,10.73-3.763,16.184C267.466,234.064,270.624,237.508,277.463,237.593z M237.378,276.703
			c-0.045-6.918-2.851-10-7.802-9.544c-5.066,0.467-10.057,1.773-15.076,2.735c-6.66,1.277-10.673,5.199-12.811,11.702
			c-1.941,5.908-4.734,11.533-7.03,17.331c-0.374,0.945-0.591,2.553-0.071,3.147c2.338,2.672,4.881,5.189,7.561,7.521
			c0.583,0.508,2.141,0.313,3.059-0.045c5.943-2.324,12.009-4.438,17.675-7.326c3.52-1.794,7.806-4.193,9.281-7.441
			C235,288.541,236.083,281.501,237.378,276.703z"/>
		<path fill="#FFFFFF" d="M325.661,260.165c-3.601-3.601-7.301-7.3-10.97-10.968c1.185-4.077,3.845-5.379,7.783-4.968
			c2.399,0.251,4.873,0.272,7.267-0.005c3.883-0.45,6.216,1.197,7.499,4.761C333.496,252.6,329.733,256.232,325.661,260.165z"/>
		<path fill="#FFFFFF" d="M168.547,248.432c1.076-3.12,3.545-4.541,7.353-4.201c2.966,0.265,5.998,0.288,8.958-0.009
			c3.069-0.307,4.664,1.537,5.423,3.762c0.344,1.01-1.012,2.871-1.99,4.008c-2.58,2.999-5.375,5.813-8.108,8.724
			C176.093,256.399,172.511,252.617,168.547,248.432z"/>
		<path fill="#FFFFFF" d="M264.007,172.723c-3.729,3.751-7.407,7.452-10.97,11.037c-3.417-3.683-7.028-7.575-11.106-11.97
			c0.893-2.618,3.407-4.299,7.586-3.721c2.23,0.308,4.57,0.295,6.805,0.004C260.335,167.549,262.792,169.167,264.007,172.723z"/>
		<path fill="#FFFFFF" d="M264.092,324.557c-3.81,3.742-7.454,7.322-10.931,10.737c-3.581-3.684-7.287-7.497-11.3-11.625
			c0.884-2.639,3.045-4.445,6.996-3.948c2.385,0.3,4.869,0.298,7.255,0.001C260.075,319.229,262.715,320.612,264.092,324.557z"/>
	</g>
</g>
</svg>
