<?xml version="1.0" encoding="utf-8"?>
<!-- Generator: Adobe Illustrator 16.0.0, SVG Export Plug-In . SVG Version: 6.00 Build 0)  -->
<!DOCTYPE svg PUBLIC "-//W3C//DTD SVG 1.1//EN" "http://www.w3.org/Graphics/SVG/1.1/DTD/svg11.dtd">
<svg version="1.1" id="Layer_1" xmlns="http://www.w3.org/2000/svg" xmlns:xlink="http://www.w3.org/1999/xlink" x="0px" y="0px"
	 width="500px" height="500px" viewBox="0 0 500 500" enable-background="new 0 0 500 500" xml:space="preserve">
<g>
	<circle fill="#D91965" cx="251.487" cy="258.705" r="164.253"/>
	<g>
		<g>
			<path fill="#606262" d="M79.043,170.995l-2.102,4.644l-11.915-5.392l-5.661,12.509l11.915,5.393l-2.11,4.663l-27.937-12.644
				l2.111-4.663l12.278,5.559l5.662-12.509l-12.279-5.559l2.102-4.643L79.043,170.995z"/>
			<path fill="#606262" d="M79.466,140.966l-7.905-14.655l3.291-4.664l10.126,20.167l8.791,6.206l-2.939,4.163l-9.015-6.364
				l-22.071-2.769l3.291-4.662L79.466,140.966z"/>
			<path fill="#606262" d="M103.288,118.589l8.121,8.32l-3.662,3.575L86.328,108.54l8.575-8.37c2.421-2.364,4.928-3.589,7.521-3.677
				s4.884,0.888,6.875,2.928c2.01,2.059,2.936,4.378,2.774,6.958c-0.159,2.58-1.45,5.051-3.872,7.415L103.288,118.589z
				 M100.42,115.65l4.913-4.795c1.356-1.324,2.022-2.681,2-4.071c-0.023-1.391-0.578-2.644-1.667-3.759
				c-1.089-1.114-2.338-1.711-3.747-1.787c-1.408-0.076-2.791,0.547-4.147,1.871l-4.912,4.796L100.42,115.65z"/>
			<path fill="#606262" d="M147.425,82.689c2.063,3.13,2.791,6.371,2.184,9.722s-2.477,6.059-5.606,8.122
				c-3.071,2.024-6.243,2.64-9.517,1.846c-3.272-0.795-5.94-2.757-8.003-5.887l-3.037-4.606c-2.055-3.119-2.804-6.34-2.247-9.667
				s2.365-5.998,5.424-8.015c3.131-2.063,6.36-2.712,9.689-1.947c3.33,0.765,6.021,2.707,8.077,5.825L147.425,82.689z
				 M140.11,80.851c-1.406-2.133-3.134-3.509-5.18-4.128c-2.048-0.618-4.044-0.285-5.99,0.997c-1.875,1.236-2.906,2.899-3.093,4.989
				c-0.187,2.09,0.424,4.202,1.83,6.336l3.06,4.642c1.422,2.157,3.132,3.565,5.13,4.224c1.998,0.658,3.94,0.366,5.829-0.878
				c1.956-1.29,3.049-2.994,3.276-5.111c0.228-2.116-0.373-4.259-1.804-6.429L140.11,80.851z"/>
			<path fill="#606262" d="M178.7,74.169l-11.087,4.603l0.49,7.549l-4.785,1.986l-1.353-32.64l4.474-1.857l22.048,24.047
				l-4.805,1.995L178.7,74.169z M167.335,74.259l8.384-3.482l-9.127-10.393l-0.117,0.048L167.335,74.259z"/>
			<path fill="#606262" d="M203.996,69.64l13.755-3.052l0.889,4.008l-18.75,4.161l-6.643-29.936l4.995-1.108L203.996,69.64z"/>
			<path fill="#606262" d="M235.858,64.704l14.066-0.799l0.232,4.101l-19.176,1.089l-1.738-30.614l5.109-0.291L235.858,64.704z"/>
			<path fill="#606262" d="M282.493,56.844l-13.331-1.496l-1.08,9.627l15.467,1.736l-0.458,4.081l-20.552-2.307l3.419-30.473
				l20.405,2.29l-0.458,4.082l-15.32-1.72l-0.965,8.602l13.332,1.496L282.493,56.844z"/>
			<path fill="#606262" d="M303.908,62.673l-3.686,12.176l-4.897-1.483l8.884-29.349l10.845,3.284
				c3.278,0.993,5.588,2.498,6.928,4.518c1.339,2.019,1.595,4.399,0.765,7.14c-0.46,1.519-1.248,2.707-2.366,3.564
				c-1.118,0.857-2.528,1.387-4.232,1.589c1.494,1.024,2.424,2.241,2.789,3.65c0.365,1.41,0.286,2.98-0.238,4.714l-0.738,2.439
				c-0.261,0.86-0.407,1.732-0.44,2.617c-0.034,0.886,0.141,1.621,0.521,2.205l-0.14,0.463l-5.04-1.525
				c-0.402-0.606-0.537-1.41-0.403-2.411c0.135-1,0.34-1.958,0.617-2.872l0.714-2.358c0.455-1.505,0.387-2.832-0.204-3.979
				c-0.592-1.147-1.64-1.949-3.145-2.404L303.908,62.673z M305.099,58.742l5.684,1.721c1.962,0.594,3.507,0.651,4.635,0.171
				c1.128-0.479,1.927-1.493,2.395-3.038c0.447-1.479,0.354-2.771-0.278-3.879c-0.633-1.109-1.855-1.937-3.67-2.487l-5.946-1.8
				L305.099,58.742z"/>
			<path fill="#606262" d="M352.121,92.306c-1.265,0.651-2.94,0.961-5.028,0.931c-2.087-0.029-4.422-0.727-7.005-2.088
				c-3.267-1.723-5.409-4.174-6.43-7.356c-1.021-3.181-0.667-6.412,1.063-9.689l2.987-5.663c1.729-3.278,4.136-5.426,7.22-6.441
				c3.083-1.018,6.202-0.693,9.356,0.97c3.191,1.684,5.258,3.777,6.199,6.282c0.941,2.504,0.766,5.027-0.527,7.568l-0.096,0.092
				l-4.285-2.26c0.687-1.543,0.79-3.024,0.309-4.444c-0.48-1.42-1.634-2.613-3.459-3.576c-1.876-0.989-3.758-1.085-5.646-0.288
				c-1.888,0.796-3.401,2.272-4.541,4.431l-3.003,5.695c-1.152,2.185-1.476,4.31-0.971,6.376c0.506,2.067,1.752,3.624,3.739,4.672
				c1.415,0.746,2.65,1.188,3.705,1.325c1.055,0.137,1.899,0.087,2.531-0.149l2.901-5.5l-5.384-2.839l1.788-3.391l9.91,5.227
				L352.121,92.306z"/>
			<path fill="#606262" d="M385.284,104.666l-10.541-8.298l-5.992,7.612l12.229,9.626l-2.54,3.227l-16.25-12.791l18.965-24.095
				l16.135,12.7l-2.54,3.227l-12.113-9.534l-5.354,6.8l10.542,8.298L385.284,104.666z"/>
			<path fill="#606262" d="M403.281,143.423l-3.354-3.836l7.9-24.977l-0.115-0.067l-16.822,14.706l-3.368-3.853l23.085-20.183
				l3.368,3.854l-7.884,24.964l0.115,0.067l16.806-14.693l3.355,3.837L403.281,143.423z"/>
			<path fill="#606262" d="M414.617,160.501l-2.732-4.327l25.929-16.37l2.731,4.326L414.617,160.501z"/>
			<path fill="#606262" d="M440.694,190.179l-0.099,0.089c-2.816,1.304-5.532,1.401-8.146,0.291
				c-2.615-1.109-4.636-3.284-6.064-6.521c-1.444-3.275-1.518-6.424-0.217-9.444c1.299-3.02,3.663-5.287,7.094-6.801l5.337-2.353
				c3.418-1.507,6.68-1.738,9.788-0.692c3.108,1.045,5.376,3.188,6.805,6.425c1.461,3.314,1.742,6.309,0.843,8.984
				s-2.831,4.636-5.795,5.882l-0.133,0.013l-1.997-4.528c1.889-0.833,3.134-1.993,3.737-3.478c0.603-1.486,0.465-3.225-0.413-5.216
				c-0.845-1.914-2.271-3.099-4.282-3.555c-2.01-0.455-4.156-0.18-6.441,0.827l-5.371,2.369c-2.311,1.019-3.97,2.437-4.977,4.255
				c-1.008,1.818-1.081,3.703-0.22,5.655c0.855,1.94,2.022,3.182,3.502,3.727c1.479,0.544,3.166,0.399,5.062-0.437L440.694,190.179z
				"/>
		</g>
	</g>
	<g id="eExx2e_1_">
		<g>
			<g>
				<path fill="#FFFFFF" d="M195.287,248.88c-8.153-1.095-14.61-6.402-23.102-2.766c-4.733,2.027-8.977-1.371-11.006-6.181
					c-2.058-4.875-0.856-9.184,3.43-12.311c4.288-3.129,9.757-3.537,12.627,0.551c5.414,7.712,13.802,6.919,20.754,9.896
					c2.831-4.823,5.376-9.16,8.645-14.731c-2.823-1.437-5.438-3.232-8.332-4.135c-4.909-1.531-8.691-5.896-8.084-10.608
					c0.636-4.929,3.429-8.185,8.526-8.755c5.774-0.646,8.973,2.604,10.851,7.699c1.021,2.768,2.302,5.439,3.47,8.166
					c8.767-4.25,16.465-7.982,24.845-12.045c-4.179-5.256-8.727-11.061-2.066-17.418c3.389-3.233,7.765-3.636,11.676-0.893
					c7.086,4.969,4.509,11.233,1.166,17.51c3.969,1.26,5.822,0.807,6.433-3.39c1.213-8.348,3.146-16.59,4.372-24.936
					c0.276-1.877-0.667-4.338-1.842-5.955c-5.075-6.988-4.352-15.43,2.051-20.265c6.611-4.993,15.475-3.598,19.98,3.146
					c4.571,6.842,2.604,14.83-4.355,19.884c-2.088,1.517-4.043,4.185-4.606,6.657c-2.056,9.014-3.497,18.167-5.312,28.041
					c1.962,0.101,4.579,0.695,4.822,0.177c2.51-5.353,6.068-10.776,6.499-16.396c0.518-6.761,2.131-11.865,7.854-13.35
					c5-1.298,10.238,1.526,12.225,6.589c2.128,5.422-0.672,9.182-5.973,13.575c-4.575,3.791-7.375,9.725-10.887,14.61
					c5.814,5.613,10.768,10.395,16.541,15.968c1.639-1.866,3.629-3.544,4.87-5.661c3.034-5.175,7.762-7.491,12.604-5.453
					c4.633,1.95,6.754,5.666,6.165,10.626c-0.603,5.074-5.231,8.279-11.07,8.197c-1.803-0.025-3.857-0.02-5.333,0.803
					c-1.001,0.559-1.907,2.809-1.552,3.863c0.384,1.141,2.566,2.736,3.478,2.469c6.804-1.991,14.62-0.519,20.08-7.367
					c3.148-3.949,8.596-3.466,12.707-0.278c4.058,3.148,5.419,7.617,3.267,12.457c-2.12,4.77-6.781,8.125-11.186,5.907
					c-8.766-4.415-16.34,0.346-24.479,0.736c-0.68,7.224-1.325,14.09-2.049,21.776c6.237,2.55,12.755,5.41,19.443,7.787
					c1.384,0.492,3.506-0.592,5.117-1.325c7.894-3.588,16.135-0.488,19.402,7.417c2.904,7.025-0.845,15.262-8.235,18.097
					c-7.104,2.725-14.865-1.223-18.116-8.533c-1.118-2.512-3.5-5.012-5.945-6.27c-5.203-2.676-10.827-4.534-15.175-6.284
					c-8.019,8.012-15.393,15.381-23.713,23.695c1.342,1.488,3.208,4.036,5.54,6.042c4.084,3.513,5.663,8.875,3.028,12.993
					c-2.642,4.128-6.604,6.159-11.412,4.485c-5.24-1.825-7.498-5.842-6.593-11.454c0.231-1.432,0.985-3.145,0.47-4.247
					c-0.828-1.772-2.512-3.144-3.835-4.686c-0.881,1.731-2.574,3.5-2.496,5.187c0.267,5.796,0.269,11.606,4.483,16.641
					c3.377,4.034,2.106,9.153-1.923,11.664c-2.854,1.778-7.729,2.234-10.921,1.094c-4.53-1.619-6.967-6.832-4.476-11.002
					c4.248-7.109,1.156-13.885,1.247-21.218c-5.7-0.956-11.243-1.885-18.489-3.1c-0.554,4.319-1.483,8.617-1.563,12.931
					c-0.1,5.389-2.338,9.087-7.404,10.44c-4.799,1.282-8.931-0.533-11.122-5.076c-2.163-4.481-0.984-8.458,2.686-11.984
					c3.149-3.026,5.849-6.52,9.344-10.484c-5.226-2.433-8.054-9.005-13.077-2.441c-1.091,1.425-1.271,3.819-1.265,5.766
					c0.022,8.769-6.048,15.193-14.445,15.028c-7.284-0.143-13.545-6.671-13.487-14.063c0.063-8.015,6.585-13.756,14.951-13.96
					c3.297-0.081,6.557-1.721,11.068-3.001C196.949,280.612,192.32,266.062,195.287,248.88z M220.485,245.886
					c-7.29,4.486-9.743,14.31-5.416,21.684c4.262,7.261,15.289,9.843,22.334,5.229c7.136-4.673,9.283-14.601,4.725-21.844
					C237.514,243.623,227.845,241.358,220.485,245.886z M254.752,233.376c-5.649,3.691-7.244,11.641-3.45,17.206
					c3.691,5.415,11.158,6.978,16.733,3.503c5.753-3.585,7.6-11.561,3.973-17.151C268.345,231.291,260.44,229.661,254.752,233.376z
					 M268.43,269.325c-2.716-4.024-8.247-5.107-12.292-2.408c-3.889,2.595-5.106,8.584-2.51,12.342
					c2.638,3.816,8.721,5.023,12.442,2.468C269.948,279.064,271.06,273.222,268.43,269.325z"/>
			</g>
		</g>
	</g>
	
		<line fill="none" stroke="#FFFFFF" stroke-width="4.3131" stroke-miterlimit="10" x1="380.266" y1="156.812" x2="130.958" y2="370.251"/>
</g>
</svg>
