<?xml version="1.0" encoding="utf-8"?>
<!-- Generator: Adobe Illustrator 16.0.0, SVG Export Plug-In . SVG Version: 6.00 Build 0)  -->
<!DOCTYPE svg PUBLIC "-//W3C//DTD SVG 1.1//EN" "http://www.w3.org/Graphics/SVG/1.1/DTD/svg11.dtd">
<svg version="1.1" id="Layer_1" xmlns="http://www.w3.org/2000/svg" xmlns:xlink="http://www.w3.org/1999/xlink" x="0px" y="0px"
	 width="500.001px" height="500px" viewBox="0 0 500.001 500" enable-background="new 0 0 500.001 500" xml:space="preserve">
<g>
	<circle fill="#D91965" cx="250.062" cy="260.862" r="164.253"/>
	<g>
		<g>
			<path fill="#606262" d="M61.04,192.781c-1.209-0.395-2.346-0.27-3.412,0.379c-1.065,0.647-2.277,2.012-3.637,4.093
				c-1.921,2.976-3.872,5.11-5.854,6.403s-4.115,1.566-6.396,0.818c-2.349-0.77-3.965-2.375-4.849-4.814
				c-0.886-2.44-0.824-5.194,0.181-8.264c1.051-3.201,2.757-5.489,5.121-6.865c2.364-1.375,4.743-1.634,7.136-0.774l0.107,0.078
				l-1.528,4.664c-1.495-0.49-2.871-0.379-4.132,0.331c-1.259,0.709-2.197,2.006-2.813,3.886c-0.582,1.775-0.643,3.267-0.184,4.473
				c0.459,1.208,1.301,2.011,2.525,2.413c1.105,0.363,2.193,0.146,3.265-0.647c1.071-0.794,2.323-2.278,3.759-4.452
				c1.869-2.86,3.81-4.861,5.824-6.004c2.015-1.142,4.169-1.336,6.465-0.585c2.428,0.796,4.04,2.4,4.837,4.812
				c0.799,2.411,0.68,5.198-0.356,8.359c-0.998,3.042-2.683,5.445-5.057,7.208c-2.372,1.764-4.949,2.153-7.729,1.168l-0.106-0.08
				l1.535-4.683c1.774,0.581,3.3,0.403,4.576-0.539c1.275-0.94,2.235-2.393,2.879-4.354c0.59-1.801,0.688-3.32,0.291-4.558
				C63.09,194.008,62.275,193.187,61.04,192.781z"/>
			<path fill="#606262" d="M72.354,155.098l-6.363,11.81l8.529,4.595l7.381-13.702l3.615,1.949l-9.809,18.207l-26.995-14.543
				l9.739-18.077l3.615,1.948l-7.312,13.572l7.62,4.105l6.362-11.811L72.354,155.098z"/>
			<path fill="#606262" d="M98.442,125.508l0.124,0.045c2.466,1.887,3.815,4.245,4.05,7.076c0.234,2.832-0.749,5.632-2.949,8.402
				c-2.227,2.804-4.979,4.333-8.258,4.589c-3.278,0.255-6.386-0.783-9.321-3.115l-4.567-3.627c-2.924-2.324-4.647-5.104-5.168-8.341
				c-0.521-3.238,0.32-6.242,2.521-9.013c2.252-2.836,4.771-4.479,7.559-4.929s5.421,0.348,7.904,2.392l0.072,0.112l-3.078,3.875
				c-1.616-1.284-3.223-1.847-4.817-1.689c-1.596,0.159-3.071,1.09-4.424,2.793c-1.303,1.639-1.687,3.453-1.155,5.444
				c0.531,1.992,1.776,3.764,3.731,5.318l4.596,3.651c1.978,1.571,4.005,2.378,6.083,2.425c2.078,0.045,3.78-0.768,5.107-2.438
				c1.318-1.661,1.875-3.272,1.668-4.834c-0.206-1.562-1.121-2.988-2.742-4.276L98.442,125.508z"/>
			<path fill="#606262" d="M113.224,83.932l13.415,15.573c2.218,2.574,3.079,5.274,2.585,8.1s-2.098,5.407-4.811,7.743
				c-2.659,2.291-5.409,3.455-8.249,3.492c-2.84,0.039-5.364-1.225-7.573-3.788L95.177,99.477l3.878-3.34l13.403,15.561
				c1.401,1.627,2.911,2.456,4.532,2.486c1.619,0.03,3.2-0.619,4.743-1.947c1.595-1.375,2.514-2.878,2.756-4.513
				c0.242-1.633-0.338-3.265-1.739-4.891l-13.404-15.562L113.224,83.932z"/>
			<path fill="#606262" d="M143.047,85.457l6.302,11.05l-4.444,2.535l-15.193-26.635l9.842-5.614
				c2.977-1.697,5.657-2.337,8.044-1.921c2.388,0.417,4.29,1.869,5.71,4.356c0.786,1.377,1.106,2.767,0.959,4.168
				c-0.146,1.4-0.732,2.79-1.757,4.167c1.771-0.38,3.294-0.219,4.568,0.484c1.274,0.704,2.36,1.842,3.257,3.416l1.263,2.212
				c0.445,0.781,0.978,1.487,1.598,2.121c0.619,0.633,1.271,1.012,1.958,1.138l0.24,0.421l-4.574,2.608
				c-0.716-0.124-1.393-0.58-2.027-1.365c-0.634-0.786-1.186-1.593-1.66-2.423l-1.221-2.14c-0.779-1.366-1.789-2.229-3.028-2.588
				s-2.542-0.151-3.908,0.629L143.047,85.457z M141.012,81.891l5.159-2.943c1.779-1.015,2.884-2.097,3.313-3.247
				c0.426-1.148,0.241-2.425-0.56-3.827c-0.765-1.341-1.768-2.163-3.007-2.467c-1.239-0.303-2.684,0.015-4.33,0.953l-5.396,3.078
				L141.012,81.891z"/>
			<path fill="#606262" d="M190.437,63.062l-12.665,4.426l3.195,9.146l14.692-5.135l1.354,3.878l-19.522,6.821l-10.116-28.947
				l19.386-6.773l1.354,3.877l-14.554,5.085l2.854,8.172l12.666-4.426L190.437,63.062z"/>
			<path fill="#606262" d="M232.891,57.349l0.674,11.607l-5.108,0.296l-1.78-30.611l11.962-0.696
				c3.378-0.196,6.075,0.522,8.091,2.155c2.014,1.635,3.104,3.874,3.27,6.719c0.166,2.873-0.657,5.231-2.468,7.074
				c-1.813,1.843-4.408,2.861-7.787,3.058L232.891,57.349z M232.651,53.25l6.854-0.399c1.893-0.11,3.285-0.697,4.179-1.762
				c0.895-1.065,1.297-2.375,1.206-3.931c-0.091-1.556-0.642-2.824-1.655-3.807c-1.015-0.981-2.466-1.417-4.358-1.307l-6.854,0.4
				L232.651,53.25z"/>
			<path fill="#606262" d="M278.228,63.035l-11.932-1.325l-3.219,6.848l-5.147-0.572l14.582-29.232l4.813,0.534l7.689,31.706
				l-5.17-0.574L278.228,63.035z M268.233,57.624l9.021,1.001l-2.972-13.51l-0.125-0.014L268.233,57.624z"/>
			<path fill="#606262" d="M310.596,61.531l11.432-12.108l5.461,1.661l-15.967,15.945l-3.132,10.296l-4.876-1.482l3.212-10.558
				l-4.303-21.825l5.46,1.662L310.596,61.531z"/>
			<path fill="#606262" d="M349.979,61.057l-3.652,24.918l0.111,0.061l19.128-16.392l5.811,3.2l-14.794,26.858l-4.484-2.469
				l5.041-9.15l6.854-11.396l-0.101-0.079l-19.431,16.417l-3.007-1.655l3.499-25.122l-0.119-0.043l-5.939,11.828l-5.041,9.149
				l-4.482-2.468l14.796-26.858L349.979,61.057z"/>
			<path fill="#606262" d="M391.431,110.187l-10.204-8.71l-6.289,7.369l11.837,10.104l-2.666,3.125l-15.73-13.427l19.908-23.323
				l15.617,13.331l-2.666,3.124L389.512,91.77l-5.619,6.583l10.203,8.71L391.431,110.187z"/>
			<path fill="#606262" d="M407.862,149.622l-3.199-3.968l8.89-24.642l-0.112-0.072l-17.395,14.025l-3.212-3.985l23.87-19.246
				l3.213,3.985l-8.873,24.628l0.112,0.072l17.379-14.011l3.199,3.968L407.862,149.622z"/>
			<path fill="#606262" d="M449.163,168.111l-4.373-8.17l-23.413,12.532l-2.416-4.512l23.415-12.532l-4.373-8.169l3.621-1.939
				l11.159,20.853L449.163,168.111z"/>
			<path fill="#606262" d="M442.926,204.971c1.21-0.394,2.053-1.167,2.53-2.319c0.478-1.152,0.651-2.97,0.52-5.451
				c-0.207-3.536,0.108-6.411,0.946-8.625c0.835-2.214,2.396-3.692,4.679-4.437c2.35-0.764,4.602-0.423,6.757,1.024
				c2.153,1.447,3.731,3.705,4.729,6.776c1.045,3.204,1.018,6.059-0.078,8.564c-1.097,2.505-2.865,4.118-5.303,4.837l-0.134-0.001
				l-1.519-4.665c1.495-0.487,2.542-1.389,3.14-2.707c0.597-1.317,0.589-2.916-0.023-4.797c-0.578-1.776-1.41-3.015-2.493-3.719
				c-1.083-0.702-2.237-0.854-3.462-0.456c-1.106,0.36-1.857,1.177-2.253,2.45c-0.396,1.272-0.53,3.21-0.406,5.813
				c0.181,3.412-0.204,6.172-1.156,8.284s-2.575,3.541-4.872,4.289c-2.429,0.792-4.678,0.448-6.745-1.026
				c-2.068-1.475-3.616-3.794-4.646-6.958c-0.991-3.043-1.05-5.978-0.175-8.803c0.873-2.825,2.724-4.66,5.55-5.505l0.133,0.001
				l1.525,4.686c-1.776,0.578-2.9,1.624-3.375,3.136c-0.476,1.514-0.393,3.251,0.246,5.213c0.587,1.802,1.405,3.087,2.456,3.853
				C440.545,205.191,441.69,205.374,442.926,204.971z"/>
		</g>
	</g>
	<g id="tggpMF_1_">
		<g>
			<path fill="#FFFFFF" d="M248.732,176.127c0.888,0,1.775,0,2.663,0c1.886,0.759,3.869,1.338,5.64,2.307
				c9.683,5.299,19.363,10.605,28.946,16.082c9.188,5.251,18.015,11.134,29.075,12.035c4.799,0.391,7.024,3.702,6.809,8.572
				c-0.092,2.092-0.452,4.171-0.561,6.264c-0.73,14.158-3.036,28.06-6.671,41.752c-9.222,34.731-28.144,62.288-59.481,80.76
				c-3.577,2.109-6.743,2.418-10.138-0.025c-1.072-0.772-2.254-1.392-3.382-2.089c-21.734-13.426-37.64-31.997-47.982-55.239
				c-10.094-22.681-14.053-46.777-15.387-71.389c-0.275-5.087,2.307-8.439,7.441-8.76c7.562-0.472,14.076-3.623,20.412-7.213
				c6.728-3.812,13.069-8.316,19.866-11.989C233.395,183.19,241.136,179.791,248.732,176.127z M245.207,266.262
				c-0.699-0.259-0.955-0.279-1.096-0.417c-3.625-3.587-7.251-7.175-10.852-10.788c-7.135-7.158-6.687-8.636-15.407,0.428
				c-2.731,2.839-2.742,4.96,0.005,7.729c7.656,7.712,15.32,15.417,23.061,23.044c4.511,4.443,8.18,4.043,11.701-1.157
				c10.05-14.836,19.964-29.766,30.132-44.52c6.614-9.596,6.497-8.992-3.194-15.517c-3.049-2.054-5.23-1.669-7.318,1.339
				c-2.965,4.271-5.857,8.59-8.773,12.894C257.392,248.261,251.323,257.229,245.207,266.262z"/>
		</g>
	</g>
</g>
</svg>
