<svg xmlns="http://www.w3.org/2000/svg" width="11.411" height="14.336" viewBox="0 0 11.411 14.336">
  <path id="Path_59" data-name="Path 59" d="M1158.87,81.085a1.4,1.4,0,0,1,1.413,1.41h1.016a2.411,2.411,0,0,0-2.429-2.427,2.448,2.448,0,0,0-2.427,2.427h1.017a1.4,1.4,0,0,1,1.41-1.41m5.707,12.752-.621-10.379a.6.6,0,0,0-.514-.514h-9.092a.506.506,0,0,0-.5.514l-.68,10.379a.8.8,0,0,0,.113.4.51.51,0,0,0,.391.171h10.456a.5.5,0,0,0,.451-.508Zm-6.666-9.254a.641.641,0,0,1-.68.621.625.625,0,0,1-.621-.621v-.4a.628.628,0,0,1,.621-.622.644.644,0,0,1,.68.622Zm3.277,0a.676.676,0,0,1-.68.621.626.626,0,0,1-.622-.621v-.4a.629.629,0,0,1,.622-.622.679.679,0,0,1,.68.622Z" transform="translate(-1153.166 -80.068)" fill="#6d6e71"/>
</svg>
