<svg xmlns="http://www.w3.org/2000/svg" width="14.579" height="12.632" viewBox="0 0 14.579 12.632">
  <path id="Path_57" data-name="Path 57" d="M1130.5,84.353v.684c-.009.041-.021.082-.026.123a3.566,3.566,0,0,1-.644,1.724,9.111,9.111,0,0,1-.868.975q-2.65,2.666-5.315,5.317a.829.829,0,0,1-.273.195.53.53,0,0,1-.6-.186q-2.828-2.831-5.658-5.657a3.842,3.842,0,0,1-1.127-3.562,3.911,3.911,0,0,1,3.4-3.165,3.837,3.837,0,0,1,3.434,1.335c.138.154.254.325.38.488a.145.145,0,0,0,.029-.021c.02-.026.036-.055.056-.082a3.941,3.941,0,0,1,7.086,1.235c.056.195.081.4.12.6" transform="translate(-1115.922 -80.773)" fill="#6d6e71"/>
</svg>
