<svg xmlns="http://www.w3.org/2000/svg" width="21.095" height="21.089" viewBox="0 0 21.095 21.089">
  <path id="Path_197" data-name="Path 197" d="M950.631,229.567a2.03,2.03,0,0,1,.251.168.613.613,0,0,1-.021.927c-.531.537-1.063,1.073-1.6,1.6a.315.315,0,0,0-.086.369c.216.793.411,1.591.611,2.389.268,1.077.53,2.156.8,3.232a1.937,1.937,0,0,1-.559,1.973q-2.827,2.821-5.645,5.653-2.067,2.07-4.132,4.139a1.985,1.985,0,0,1-1.094.61,1.835,1.835,0,0,1-1.671-.549q-3.462-3.455-6.918-6.915a2.225,2.225,0,0,1-.578-1.112V241.6a2.584,2.584,0,0,1,.858-1.412q3.689-3.667,7.363-7.347,1.123-1.12,2.245-2.241a1.883,1.883,0,0,1,1.9-.539c.977.245,1.957.48,2.934.726.95.239,1.9.488,2.849.725a.265.265,0,0,0,.2-.078c.5-.49.99-.99,1.491-1.48.144-.141.313-.257.471-.384Zm-3.4,2.985a1.237,1.237,0,0,0-.13-.052q-2.516-.621-5.03-1.244a.727.727,0,0,0-.745.22q-4.908,4.908-9.823,9.811a.645.645,0,0,0,.005,1.063l6.8,6.8a.645.645,0,0,0,1.063,0q4.9-4.9,9.8-9.808a.773.773,0,0,0,.22-.8c-.414-1.648-.819-3.3-1.228-4.949a1.718,1.718,0,0,0-.059-.162c-.478.479-.941.937-1.4,1.4a.222.222,0,0,0-.025.193,1.849,1.849,0,1,1-1.043-1.047.208.208,0,0,0,.178-.019c.47-.459.933-.926,1.413-1.4m-1.66,3.15a.606.606,0,0,0-.609-.617.618.618,0,0,0-.623.609.632.632,0,0,0,.615.623.618.618,0,0,0,.617-.615" transform="translate(-929.989 -229.567)" fill="#d32564"/>
</svg>
