<svg xmlns="http://www.w3.org/2000/svg" width="14.766" height="14.767" viewBox="0 0 14.766 14.767">
  <path id="Path_58" data-name="Path 58" d="M1097.108,94.626h-.3a.089.089,0,0,1-.018-.009,1.555,1.555,0,0,1-.948-.48q-1.527-1.535-3.061-3.064a.333.333,0,0,1-.047-.067l-.135.076a5.986,5.986,0,0,1-7.8-1.746,5.808,5.808,0,0,1-1.075-2.775c-.016-.134-.028-.268-.042-.4v-.6c0-.027.009-.054.013-.081.037-.281.055-.565.113-.842a5.989,5.989,0,0,1,4.856-4.687,5.917,5.917,0,0,1,2.45.089,5.987,5.987,0,0,1,4.534,5.329,5.853,5.853,0,0,1-.5,2.92c-.093.208-.2.408-.312.628a.818.818,0,0,1,.081.066q1.54,1.538,3.079,3.078a1.5,1.5,0,0,1-.521,2.473,3.261,3.261,0,0,1-.368.1m-7.431-13.269a4.5,4.5,0,1,0,4.492,4.5,4.5,4.5,0,0,0-4.492-4.5" transform="translate(-1083.683 -79.859)" fill="#6d6e71"/>
</svg>
