<svg id="Layer_1" data-name="Layer 1" xmlns="http://www.w3.org/2000/svg" viewBox="0 0 289.82 65"><defs><style>.cls-1{fill:#3b4578;}.cls-2{fill:#d71a62;}.cls-3{fill:#30318c;}.cls-4{fill:#b3821f;}.cls-5{fill:none;stroke:#b3821f;stroke-miterlimit:10;stroke-width:0.5px;}</style></defs><title>STYLORI LOGO</title><polygon class="cls-1" points="29.03 15.73 29.03 13.51 52.98 13.51 52.98 15.73 42.71 14.94 42.71 43.3 39.34 43.3 39.34 14.94 29.03 15.73"/><polygon class="cls-1" points="53.36 13.51 57.19 13.51 65.26 29.96 72.5 13.51 74.78 13.51 65.91 31.44 65.91 43.3 62.53 43.3 62.53 31.18 53.36 13.51"/><polygon class="cls-1" points="78.38 43.3 78.38 13.51 81.75 13.51 81.75 42.05 93.65 41.56 93.65 43.3 78.38 43.3"/><path class="cls-1" d="M127.23,43.3V13.51h6.06c3.56,0,6.12.74,7.66,2.22a7.79,7.79,0,0,1,2.31,5.89A7.6,7.6,0,0,1,142,25.85a9.94,9.94,0,0,1-3.58,3.24,133.32,133.32,0,0,0,9.21,10.54,15.09,15.09,0,0,0,5,3.3l-.15.76a13.14,13.14,0,0,1-1.93.15,8.91,8.91,0,0,1-5.24-1.94,10.9,10.9,0,0,1-1.47-1.28c-.59-.59-1.33-1.41-2.24-2.49s-1.6-1.89-2.05-2.44l-2.46-3c-1.19-1.46-1.84-2.25-1.93-2.38a16.9,16.9,0,0,1-3.27.34c-.4,0-.8,0-1.21,0V43.3Zm3.38-13.49h.19c3.08,0,5.35-.65,6.82-2a7,7,0,0,0,2.27-5.53,7.18,7.18,0,0,0-2.14-5.48,7.85,7.85,0,0,0-5.32-2.14h-1.82V29.81Z"/><rect class="cls-1" x="153.69" y="13.51" width="3.37" height="29.79"/><path class="cls-1" d="M26.75,32.43a8.57,8.57,0,0,0-2.37-2.77c-.54-.4-1.11-.82-1.7-1.23h0q-1.18-.86-2.55-1.71Q18.41,25.64,17,24.77a8.15,8.15,0,0,1-2.45-2.22,5.06,5.06,0,0,1-1-3c-.09-4.38,4.32-5.85,7.08-4.62A10.12,10.12,0,0,1,23,16.45a14,14,0,0,1,2,2V14.77a9.84,9.84,0,0,0-6.06-1.63,7.85,7.85,0,0,0-2.56.45,10.81,10.81,0,0,0-2.54,1.32,6.4,6.4,0,0,0-2,2.36A7.21,7.21,0,0,0,11,20.64a7.66,7.66,0,0,0,.94,3.79,8.82,8.82,0,0,0,2.37,2.77c.54.4,1.12.81,1.71,1.23h0c.8.57,1.65,1.14,2.56,1.71q1.72,1.08,3.18,2a8.27,8.27,0,0,1,2.45,2.22,5.13,5.13,0,0,1,1,3c.09,4.38-4.32,5.85-7.09,4.62a10.33,10.33,0,0,1-2.35-1.53,15.18,15.18,0,0,1-2-2v3.71a9.91,9.91,0,0,0,6.07,1.63,7.85,7.85,0,0,0,2.56-.45A10.44,10.44,0,0,0,24.92,42a6.29,6.29,0,0,0,2-2.36,7.21,7.21,0,0,0,.78-3.37,7.57,7.57,0,0,0-.95-3.79"/><path class="cls-1" d="M119.13,17.33a13.27,13.27,0,0,0-3.56-2.59c-.2.81-.44,1.82-.64,2.63a12.57,12.57,0,0,1,3.46,4.33,15.63,15.63,0,0,1,1.48,6.78c0,9.62-6.83,13.8-10.38,14a11.62,11.62,0,0,1-7.21-2.07,12.92,12.92,0,0,1-4.57-5.2,15.43,15.43,0,0,1-1.49-6.71c0-9.66,6.1-14,10.37-14a13.87,13.87,0,0,1,4.1.59c.17-.57.34-1.15.51-1.71a20,20,0,0,0-3.16-.24,15.15,15.15,0,0,0-5.46,1,16.28,16.28,0,0,0-4.87,2.95,13.82,13.82,0,0,0-3.53,4.92,16,16,0,0,0-1.35,6.62,15,15,0,0,0,4.13,11q4.14,4.2,11.08,4.19a15.17,15.17,0,0,0,5.47-1,16.49,16.49,0,0,0,4.88-3,13.88,13.88,0,0,0,3.52-4.91,16,16,0,0,0,1.35-6.63,14.94,14.94,0,0,0-4.13-11"/><path id="SVGID" class="cls-2" d="M114.78,7.19c-2,2.67-3.3,9.14-5.13,15-2.07,5.7-7.7,4.36-7.68.22,0-3.75,6.79-6.07,8.06-6.47a.16.16,0,0,0,.08-.24L110,15.5a.17.17,0,0,0-.19-.07,26.59,26.59,0,0,0-5.87,2.37c-5.09,2.87-4.73,9.39-.24,10.33s7.53-1.63,8.83-5.57,2.65-11.73,4.4-13.87a1.81,1.81,0,0,1,3,2,10.67,10.67,0,0,1-3.89,3A.18.18,0,0,0,116,14l.09.1a.24.24,0,0,0,.3.07l3.14-1.41c3.35-1.78,2.32-4.66,1.44-5.7a4.67,4.67,0,0,0-3.25-1.35,3.5,3.5,0,0,0-2.91,1.51"/><path class="cls-2" d="M13.57,55.47H14a1.42,1.42,0,0,0,1.53,1.32c.64,0,1-.3,1-.88s-.59-.81-1.25-.93-1.58-.31-1.58-1.42A1.58,1.58,0,0,1,15.33,52a2,2,0,0,1,1,.23.41.41,0,0,0,.18.07c.13,0,.17-.12.18-.3H17v1.59H16.6c-.2-.76-.61-1.12-1.28-1.12s-.93.31-.93.75.57.69,1.23.82,1.62.36,1.62,1.55a1.58,1.58,0,0,1-1.71,1.68,2.47,2.47,0,0,1-1.33-.37.28.28,0,0,0-.12,0c-.08,0-.13.07-.16.41h-.35Z"/><path class="cls-2" d="M21.46,52.63H20.7v-.5h.76V50.82l.73-.2h.24v1.51h1.11v.5H22.43v3.3c0,.56.13.78.52.78s.62-.18.79-.8l.38.1c-.2.87-.61,1.28-1.47,1.28a1.06,1.06,0,0,1-1.19-1.2Z"/><path class="cls-2" d="M27,52.13h2.24v.41l-.7,0L29.72,56h0l1.17-3.46-.7,0v-.41H32v.41l-.51,0L29.59,58c-.31.87-.58,1.36-1.43,1.36-.62,0-1.17-.31-1.17-1a.66.66,0,0,1,.67-.71c.33,0,.57.21.58.67l-.39.21c0,.25.14.35.41.35.43,0,.54-.28.89-1.31l.09-.29-1.78-4.7-.46,0Z"/><path class="cls-2" d="M36.68,49.56V56.7l.77.07v.41H35v-.41l.73-.07V50.09L35,50v-.4Z"/><path class="cls-2" d="M43.29,52c1.22,0,2,.7,2,2.2,0,.14,0,.29,0,.43H42c0,1.25.37,2,1.41,2a1.26,1.26,0,0,0,1.32-.87l.45.15a1.9,1.9,0,0,1-2,1.33c-1.54,0-2.27-1-2.27-2.57C41,53,42,52,43.29,52Zm1,2.09v-.22c0-.93-.32-1.4-1-1.4s-1.2.74-1.26,1.62Z"/><path class="cls-2" d="M55.1,53.15a1,1,0,0,1,1.11,1.08,1.11,1.11,0,1,1-1.11-1.08Z"/><path class="cls-2" d="M66.54,49.56V56.7l.77.07v.41H64.85v-.41l.72-.07V50.09L64.85,50v-.4Z"/><path class="cls-2" d="M73.17,52c1.56,0,2.3,1.07,2.3,2.62a2.35,2.35,0,0,1-2.36,2.65c-1.52,0-2.31-1.07-2.31-2.61A2.38,2.38,0,0,1,73.17,52Zm0,.49c-1,0-1.26,1-1.26,2.1s.23,2.19,1.29,2.19,1.26-1,1.26-2.12S74.19,52.51,73.12,52.51Z"/><path class="cls-2" d="M78.6,52.13h2.24v.41l-.7,0,1.18,3.61h0l1.18-3.61-.7,0v-.41h1.8v.41l-.5,0-1.63,4.6h-.79l-1.66-4.6-.45,0v-.41Z"/><path class="cls-2" d="M89.1,52c1.22,0,2,.7,2,2.2,0,.14,0,.29,0,.43H87.81c0,1.25.36,2,1.41,2a1.26,1.26,0,0,0,1.32-.87L91,56a1.92,1.92,0,0,1-2,1.33c-1.55,0-2.28-1-2.28-2.57A2.4,2.4,0,0,1,89.1,52Zm1,2.09v-.22c0-.93-.31-1.4-1-1.4s-1.2.74-1.26,1.62Z"/><path class="cls-2" d="M100.9,53.15A1,1,0,0,1,102,54.23a1.1,1.1,0,1,1-1.11-1.08Z"/><path class="cls-2" d="M110.87,55.47h.39a1.42,1.42,0,0,0,1.53,1.32c.64,0,1-.3,1-.88s-.6-.81-1.25-.93S111,54.67,111,53.56A1.58,1.58,0,0,1,112.63,52a2,2,0,0,1,1,.23.4.4,0,0,0,.19.07c.12,0,.16-.12.17-.3h.33v1.59h-.39a1.25,1.25,0,0,0-1.28-1.12c-.53,0-.93.31-.93.75s.57.69,1.23.82,1.62.36,1.62,1.55a1.58,1.58,0,0,1-1.71,1.68,2.5,2.5,0,0,1-1.33-.37.28.28,0,0,0-.12,0c-.08,0-.13.07-.16.41h-.35V55.47Z"/><path class="cls-2" d="M118.76,52.63H118v-.5h.76V50.82l.73-.2h.24v1.51h1.11v.5h-1.11v3.3c0,.56.13.78.52.78s.61-.18.79-.8l.38.1c-.2.87-.61,1.28-1.47,1.28a1.06,1.06,0,0,1-1.19-1.2V52.63Z"/><path class="cls-2" d="M127.13,52c1.56,0,2.3,1.07,2.3,2.62a2.35,2.35,0,0,1-2.36,2.65c-1.52,0-2.31-1.07-2.31-2.61A2.39,2.39,0,0,1,127.13,52Zm0,.49c-1,0-1.26,1-1.26,2.1s.24,2.19,1.29,2.19,1.26-1,1.26-2.12S128.15,52.51,127.08,52.51Z"/><path class="cls-2" d="M135.76,56.77v.41H133v-.41l.66-.07V52.62l-.66-.07v-.4l1.46-.06.07.88h0a1.6,1.6,0,0,1,1.46-.95,1,1,0,0,1,1,.94c0,.55-.29.8-.71.8a.62.62,0,0,1-.66-.69l.33-.14a.5.5,0,0,0,0-.12c0-.18-.15-.24-.34-.24a1.36,1.36,0,0,0-1.09,1.29V56.7Z"/><path class="cls-2" d="M142.16,52.09V56.7l.77.07v.41h-2.5v-.41l.76-.07V52.62l-.76-.07v-.4Zm-.6-2.32a.62.62,0,1,1,0,1.24.56.56,0,0,1-.64-.61A.58.58,0,0,1,141.56,49.77Z"/><path class="cls-2" d="M148.75,52c1.22,0,2,.7,2,2.2,0,.14,0,.29,0,.43h-3.23c0,1.25.36,2,1.41,2a1.26,1.26,0,0,0,1.32-.87l.45.15a1.92,1.92,0,0,1-2,1.33c-1.55,0-2.28-1-2.28-2.57A2.4,2.4,0,0,1,148.75,52Zm1,2.09v-.22c0-.93-.32-1.4-1-1.4s-1.2.74-1.26,1.62Z"/><path class="cls-2" d="M154.44,55.47h.4a1.41,1.41,0,0,0,1.52,1.32c.64,0,1-.3,1-.88s-.6-.81-1.25-.93-1.59-.31-1.59-1.42A1.58,1.58,0,0,1,156.2,52a2,2,0,0,1,1,.23.45.45,0,0,0,.19.07c.12,0,.16-.12.17-.3h.33v1.59h-.39c-.2-.76-.61-1.12-1.28-1.12s-.93.31-.93.75.57.69,1.23.82,1.62.36,1.62,1.55a1.58,1.58,0,0,1-1.71,1.68,2.5,2.5,0,0,1-1.33-.37.28.28,0,0,0-.12,0c-.08,0-.13.07-.16.41h-.35V55.47Z"/><path class="cls-3" d="M272.59,33.3a.74.74,0,0,0-.92,0q-.46.31-1,.6c-2.71,1.6-5.45,1.1-7.21-1.4a10.28,10.28,0,0,1-1.29-2.59,8.65,8.65,0,0,1,.12-6.7,3.35,3.35,0,0,1,3.55-2,3.88,3.88,0,0,1,3.2,3.43c0,.56.53.57.82.28.61-.61,1.22-1.22,1.81-1.85s.64-1-.16-1.54a7.9,7.9,0,0,0-4.8-1.15c-.42,0-1.18.06-1.93.16a8.73,8.73,0,0,0-6.8,4.5,7.47,7.47,0,0,0,3.41,10.38,11.83,11.83,0,0,0,7,.74,7.11,7.11,0,0,0,4-2.06c.22-.24.41-.62.22-.84"/><path class="cls-3" d="M257.93,35.75h0c-1.05,0-1.61-1.45-1.61-1.45l-6.24-13.88h-4.82c-.69,0-.18.46-.18.46l1,.84v1.44l-3.7,8.58h0v0l-1.35,3.13c-.42.94-1.77.85-1.77.85v.68h2.57l1.56-3.35h7.33l1.06,2.67.27.68h6v-.68Zm-13.87-4,3.33-7.65,2.84,7.65Z"/><path class="cls-3" d="M235.86,30.63l-6.32-10.21h-5.76v.5l1.56.95V34A2.11,2.11,0,0,1,223.56,36v.47h2.56c.93,0,.88-1.13.88-1.13V24l7.87,12.4h2.76V22.77c0-1.19,1.67-1.88,1.67-1.88v-.47h-3.44Z"/><path class="cls-4" d="M226.28,41.47c0,.52-.05,1,0,1.53v1.86l0,.32a1.67,1.67,0,0,1-.08.3,1.11,1.11,0,0,1-.14.29.88.88,0,0,1-.33.28l-.39.21-.11.05a.19.19,0,0,1-.11,0h-.49l-.24,0a.53.53,0,0,1-.22-.08.87.87,0,0,1-.26-.18,2.2,2.2,0,0,1-.2-.23.33.33,0,0,1-.07-.25.27.27,0,0,1,.1-.18.52.52,0,0,1,.21-.11l.24-.08.21-.07a.3.3,0,0,1,.21,0,.34.34,0,0,1,0,.2c0,.07,0,.15-.05.23a.58.58,0,0,0,0,.23.38.38,0,0,0,.1.25.32.32,0,0,0,.42-.25,1.18,1.18,0,0,0,0-.28V41.72a.31.31,0,0,0-.12,0l-.13,0a.19.19,0,0,1-.09,0,.23.23,0,0,1,0-.15l0,0,0,0c.24,0,.48,0,.72,0l.72,0Z"/><path class="cls-4" d="M232.68,45a.31.31,0,0,1,0,.11.68.68,0,0,1,0,.12.3.3,0,0,1,0,.12.94.94,0,0,1-.06.15l-.09.12a.21.21,0,0,1-.12,0H229l-.08,0s0,0-.05-.06a.07.07,0,0,1,0-.06.13.13,0,0,1,0-.06.24.24,0,0,1,.09,0l.1,0,.09,0a.09.09,0,0,0,.06-.06V44.06c0-.14,0-.27,0-.41v-1.9a.23.23,0,0,0-.12,0l-.16,0a.35.35,0,0,1-.12-.07s0-.07,0-.12l.14,0,.29,0h.34l2,0h.24l.18,0,.08,0,.08,0a.4.4,0,0,1,.1.12.77.77,0,0,1,.07.16l0,.17c0,.06,0,.12,0,.17l-.21,0h-.46l-.15-.06a.7.7,0,0,1-.14-.16.59.59,0,0,0-.13-.18s-.07-.06-.14-.07l-.23,0h-.38l-.07,0a.13.13,0,0,0,0,.07v1.48l0,0a.75.75,0,0,0,.29,0,.39.39,0,0,0,.14-.1A.83.83,0,0,0,231,43a.16.16,0,0,1,.09-.09h.67a.14.14,0,0,1,.11,0,.14.14,0,0,1,0,.09.44.44,0,0,1,0,.15,1.09,1.09,0,0,1-.08.15,1.47,1.47,0,0,1-.1.13.26.26,0,0,1-.1.07h-1.17v1.76l.07.07h.92a.21.21,0,0,0,.16-.07.79.79,0,0,0,.12-.15l.1-.16c0-.05.07-.08.11-.08h.67Z"/><path class="cls-4" d="M238.4,43.89l-.09.17c0,.06-.43,1.1-.57,1.47a.21.21,0,0,1-.19.12h-.42a.66.66,0,0,1-.29-.1.43.43,0,0,1-.12-.11,1,1,0,0,1-.08-.14c-.19-.43-.38-.85-.56-1.28s-.35-.85-.54-1.28c0-.11-.53-1.27-.53-1.31l.15,0h1l.12,0a1.16,1.16,0,0,1,.15.25l.23.49q.12.3.27.63l.28.65.22.55c.07.16.11.28.14.34a.21.21,0,0,0,0,.07.05.05,0,0,0,.05,0h0a.54.54,0,0,1,.05-.11.31.31,0,0,0,.05-.1c.06-.13.12-.26.17-.39l.15-.38v-.19a.42.42,0,0,0,0-.18c0-.08-.08-.18-.13-.31l-.17-.41c-.06-.14-.11-.26-.17-.38a1,1,0,0,0-.17-.25.19.19,0,0,0-.1,0l-.13,0-.11,0s0,0,0-.09,0-.08.08-.11l.22,0c.11,0,.93,0,1,0l.23,0c.07,0,.1,0,.12,0a.31.31,0,0,1,.08.11l1.24,2.9a.17.17,0,0,0,.1,0c0-.05.73-1.74.78-1.91a1.5,1.5,0,0,0,.08-.48.3.3,0,0,0-.08-.25.54.54,0,0,0-.18-.11l-.18-.06a.1.1,0,0,1-.09-.11.06.06,0,0,1,0-.06.36.36,0,0,1,.19,0l.3,0h.54l.07,0,0,.07a.5.5,0,0,1,0,.17.57.57,0,0,1,0,.18c0,.11-.07.21-.11.32l-.15.3-1.24,3a.21.21,0,0,1-.19.13h-.61a.18.18,0,0,1-.11,0,.21.21,0,0,1-.06-.1l-.71-1.62Z"/><path class="cls-4" d="M248.08,45a.18.18,0,0,1,0,.11,1,1,0,0,0,0,.12.84.84,0,0,1,0,.12.47.47,0,0,1-.06.15.54.54,0,0,1-.09.12.18.18,0,0,1-.12,0h-3.38l-.08,0s0,0-.05-.06a.07.07,0,0,1,0-.06s0,0,0-.06a.19.19,0,0,1,.08,0l.1,0,.1,0a.09.09,0,0,0,.06-.06V41.75a.23.23,0,0,0-.12,0l-.16,0a.23.23,0,0,1-.11-.07s0-.07,0-.12l.15,0,.28,0,2.35,0h.24l.19,0,.08,0,.07,0a.29.29,0,0,1,.1.12.77.77,0,0,1,.07.16l0,.17a1,1,0,0,1,0,.17l-.21,0h-.46l-.15-.06a.65.65,0,0,1-.13-.16.83.83,0,0,0-.13-.18.21.21,0,0,0-.15-.07l-.23,0H246a.09.09,0,0,0-.07,0s0,0,0,.07v1.48l0,0a.71.71,0,0,0,.29,0,.44.44,0,0,0,.15-.1.75.75,0,0,0,.07-.12.16.16,0,0,1,.09-.09h.67a.12.12,0,0,1,.11,0,.14.14,0,0,1,0,.09.44.44,0,0,1,0,.15,1.09,1.09,0,0,1-.08.15.64.64,0,0,1-.1.13.26.26,0,0,1-.1.07h-1.17v1.76l.07.07h.92a.2.2,0,0,0,.16-.07l.13-.15a1.12,1.12,0,0,1,.1-.16c0-.05.06-.08.1-.08H248Z"/><path class="cls-4" d="M253.61,45.62l-.57,0h-.59l-.59,0-.58,0h-.64l-.13,0a.07.07,0,0,1,0-.07.29.29,0,0,1,0-.09,369270681452.66,369270681452.66,0,0,1,.1-.16.12.12,0,0,0,0-.09s0-3.06,0-3.12v-.19a.87.87,0,0,1,.06-.37.19.19,0,0,1,.17-.09h1l.13,0a.09.09,0,0,1,.05.11.31.31,0,0,0-.11.09.36.36,0,0,0-.08.12,2.43,2.43,0,0,0,0,.25c0,.12,0,3,0,3.07s0,.18,0,.21l.11.1h.68a.56.56,0,0,0,.18,0,.8.8,0,0,0,.15-.17.41.41,0,0,1,.15-.17l.16-.06.23,0h.23a.28.28,0,0,1,.15,0,.15.15,0,0,1,.06.15.52.52,0,0,1-.08.19,1.33,1.33,0,0,1-.14.19l-.12.12"/><path class="cls-4" d="M259.5,45.62l-.57,0h-.59l-.59,0-.58,0h-.64l-.13,0a.07.07,0,0,1,0-.07.29.29,0,0,1,0-.09.56.56,0,0,0,.05-.08.22.22,0,0,0,.05-.08.12.12,0,0,0,0-.09s0-3.25,0-3.31a.87.87,0,0,1,.06-.37.19.19,0,0,1,.17-.09h1l.13,0a.1.1,0,0,1,.05.11.31.31,0,0,0-.11.09.36.36,0,0,0-.08.12,2.43,2.43,0,0,0,0,.25c0,.12,0,.26,0,.42s0,.35,0,.54v1.19c0,.2,0,.37,0,.53s0,.29,0,.39,0,.18,0,.21l.11.1h.68a.56.56,0,0,0,.18,0,.8.8,0,0,0,.15-.17A.41.41,0,0,1,259,45l.16-.06.23,0h.23a.28.28,0,0,1,.15,0,.15.15,0,0,1,.06.15.52.52,0,0,1-.08.19,1.33,1.33,0,0,1-.14.19l-.12.12"/><path class="cls-4" d="M266.07,45a.31.31,0,0,1,0,.11,1,1,0,0,0,0,.12.84.84,0,0,1,0,.12.94.94,0,0,1-.06.15l-.09.12a.21.21,0,0,1-.12,0h-3.38l-.08,0s0,0-.05-.06a.07.07,0,0,1,0-.06.11.11,0,0,1,.06-.06.15.15,0,0,1,.08,0l.1,0,.09,0a.09.09,0,0,0,.06-.06V44.06c0-.14,0-.27,0-.41v-1.9a.23.23,0,0,0-.12,0l-.16,0a.35.35,0,0,1-.12-.07s0-.07,0-.12l.14,0,.29,0H263l2,0h.24l.19,0,.07,0,.08,0a.4.4,0,0,1,.1.12.77.77,0,0,1,.07.16l0,.17c0,.06,0,.12,0,.17l-.21,0h-.46l-.15-.06a1.07,1.07,0,0,1-.14-.16.59.59,0,0,0-.13-.18s-.07-.06-.14-.07l-.23,0H264l-.07,0a.13.13,0,0,0,0,.07v1.48l0,0a.71.71,0,0,0,.29,0,.39.39,0,0,0,.14-.1.83.83,0,0,0,.08-.12.16.16,0,0,1,.09-.09h.67a.14.14,0,0,1,.11,0,.14.14,0,0,1,0,.09.44.44,0,0,1,0,.15,1.09,1.09,0,0,1-.08.15,1.47,1.47,0,0,1-.1.13.26.26,0,0,1-.1.07h-1.17v1.76l.07.07h.92a.2.2,0,0,0,.16-.07.79.79,0,0,0,.12-.15l.1-.16c0-.05.07-.08.11-.08H266Z"/><path class="cls-4" d="M270,44.39v.82a1.21,1.21,0,0,1,0,.2.23.23,0,0,1,0,.13.34.34,0,0,1-.14.09.57.57,0,0,1-.22,0h-.32l-.33,0-.23,0s0,0,0-.06a.38.38,0,0,1,0-.1l0-.12,0-.08a1.93,1.93,0,0,0,0-.24V42a.33.33,0,0,0-.06-.23.35.35,0,0,0-.13-.08l-.11-.06s0-.06,0-.13a.06.06,0,0,1,.06,0h1.34l.07,0a.15.15,0,0,1,.06.05l.07,0,.07,0,.22,0,.29-.07.31-.06.24,0h.31l.25,0,.17,0,.08,0a1.36,1.36,0,0,1,.43.36,1.24,1.24,0,0,1,.18.34,1,1,0,0,1,.06.35,1,1,0,0,1-.06.33.85.85,0,0,1-.21.31l-.09.09-.15.14-.18.16-.18.16-.13.13s-.05.06-.05.07a.66.66,0,0,0,.09.26l.21.36c.07.13.15.25.23.37l.18.25a.24.24,0,0,0,.13.11l.11,0,.13.06a.18.18,0,0,1,.09.08.14.14,0,0,1,0,.11l0,0-.36,0-.43,0h-.43a2.68,2.68,0,0,1-.34,0,.41.41,0,0,1-.11-.1l-.15-.21L270.8,45c-.06-.09-.11-.19-.17-.29l-.13-.25c0-.08-.07-.13-.08-.16a.16.16,0,0,0-.1,0h-.12l-.13,0-.09.06m0-.41a1.27,1.27,0,0,0,.47-.09,1.68,1.68,0,0,0,.42-.27,1.24,1.24,0,0,0,.29-.39.94.94,0,0,0,.12-.47,1.41,1.41,0,0,0-.05-.35.7.7,0,0,0-.18-.31.69.69,0,0,0-.26-.14,1.19,1.19,0,0,0-.36-.09.76.76,0,0,0-.31,0,.18.18,0,0,0-.14.19Z"/><path class="cls-4" d="M278.1,42.55H278s-.05,0-.06-.08a.25.25,0,0,1,0-.12.64.64,0,0,0-.12-.33l-.19-.16a1,1,0,0,0-.23-.12l-.22-.08a2.3,2.3,0,0,0-.26,0,.62.62,0,0,0-.24,0,.3.3,0,0,0-.17.12.36.36,0,0,0-.07.25.35.35,0,0,0,.05.18.64.64,0,0,0,.13.15,2.47,2.47,0,0,0,.39.29l.47.29.49.31a3,3,0,0,1,.44.34,1.88,1.88,0,0,1,.31.4,1,1,0,0,1,.12.48,1.12,1.12,0,0,1,0,.32.8.8,0,0,1-.15.29,1.14,1.14,0,0,1-.52.38,2.91,2.91,0,0,1-.72.17,4.16,4.16,0,0,1-.79,0,3.6,3.6,0,0,1-.72-.12,1.63,1.63,0,0,1-.53-.21c-.14-.08-.2-.17-.2-.26a.46.46,0,0,1,.05-.23,1.42,1.42,0,0,1,.14-.23,1.63,1.63,0,0,1,.17-.2c.06-.07.12-.12.17-.17h.12s.06,0,.06.08a.36.36,0,0,1,0,.11.49.49,0,0,0,0,.12.39.39,0,0,0,0,.18,1.09,1.09,0,0,0,.13.17,1.07,1.07,0,0,0,.16.14,1.67,1.67,0,0,0,.16.12l.23.11.27.11.29,0a.71.71,0,0,0,.26,0,.4.4,0,0,0,.19-.15.56.56,0,0,0,.07-.29c0-.05,0-.09,0-.14a.44.44,0,0,0-.05-.15.28.28,0,0,0-.08-.12.48.48,0,0,0-.11-.09l-1.7-1.17a.78.78,0,0,1-.25-.26,1.43,1.43,0,0,1-.14-.34.87.87,0,0,1,0-.36.67.67,0,0,1,.13-.34,1.22,1.22,0,0,1,.5-.4,2.34,2.34,0,0,1,.64-.18,3.18,3.18,0,0,1,.69,0,5.12,5.12,0,0,1,.63.11l.32.07a.6.6,0,0,1,.28.13.26.26,0,0,1,.11.21.35.35,0,0,1-.06.19.94.94,0,0,1-.12.18,1.29,1.29,0,0,1-.17.16l-.15.14"/><path class="cls-4" d="M188.19,38.9c.51,1-.7,1.49-1.08.86s.5-.93.5-.93a.78.78,0,0,0-1.22.29,1.51,1.51,0,0,0,.77,2.24c1.41.48,2.59-1,2.84-1.86.17-.55.48-2.58.74-3.9.38-1.87,3.11-1.63,5.27-1.68a3.82,3.82,0,0,1,2.48.58l.06,0a3.89,3.89,0,0,1,.58,2.49c0,2.16.19,4.89-1.68,5.27-1.32.26-3.35.57-3.9.74-.85.25-2.34,1.43-1.86,2.84a1.51,1.51,0,0,0,2.24.77.78.78,0,0,0,.29-1.22s-.26.9-.93.5-.09-1.59.86-1.08a1.19,1.19,0,0,1-.05,2.19c-1,.55-2.65.43-3.11-1.73s1.94-3.4,3.53-3.84,2.48-.7,2.84-2.35c.4-1.81.9-3,.23-3.67s-1.9-.13-3.67.23-1.95,1.37-2.36,2.84-1.7,4-3.83,3.53S185.45,40,186,39a1.19,1.19,0,0,1,2.19-.05"/><path class="cls-4" d="M192.53,42.55l.06.05-.58.58-.55.55-.06,0a.75.75,0,0,0-.16-.85l-1-1s-.46-.46-.88-.2l-.11-.11.56-.56.57-.57.11.1c-.26.43.2.89.2.89l1,1a.74.74,0,0,0,.84.16"/><path class="cls-4" d="M207.28,44.86c1-.51,1.49.7.86,1.08s-.93-.5-.93-.5a.78.78,0,0,0,.3,1.22,1.5,1.5,0,0,0,2.23-.77c.48-1.41-1-2.59-1.85-2.84-.56-.17-2.58-.48-3.91-.74-1.87-.38-1.63-3.11-1.68-5.27a4,4,0,0,1,.58-2.49l.06,0a3.85,3.85,0,0,1,2.48-.58c2.17,0,4.89-.19,5.27,1.68.27,1.32.57,3.35.74,3.9.25.85,1.43,2.34,2.84,1.86a1.51,1.51,0,0,0,.77-2.24.78.78,0,0,0-1.22-.29s.91.26.51.93-1.59.09-1.09-.86a1.2,1.2,0,0,1,2.2.05c.54,1,.42,2.65-1.73,3.11s-3.41-1.94-3.84-3.53-.7-2.48-2.36-2.84-3-.9-3.67-.23-.31,2.08,0,3.85,1.55,1.77,3,2.17,4,1.71,3.52,3.84-2.1,2.28-3.1,1.73a1.19,1.19,0,0,1-.06-2.19"/><path class="cls-4" d="M194.15,20.14c-1,.51-1.49-.7-.86-1.08s.93.5.93.5a.78.78,0,0,0-.29-1.22,1.51,1.51,0,0,0-2.24.77c-.48,1.41,1,2.59,1.86,2.84.55.17,2.58.48,3.9.74,1.87.38,1.63,3.11,1.68,5.27a3.89,3.89,0,0,1-.58,2.49l-.06.05a3.82,3.82,0,0,1-2.48.58c-2.16,0-4.89.19-5.27-1.68-.26-1.32-.57-3.35-.74-3.9-.25-.85-1.43-2.34-2.84-1.86a1.51,1.51,0,0,0-.77,2.24.78.78,0,0,0,1.22.29s-.9-.26-.5-.93,1.59-.09,1.08.86a1.19,1.19,0,0,1-2.19-.05c-.55-1-.43-2.65,1.73-3.11s3.4,1.94,3.83,3.53.71,2.47,2.36,2.84,3,.9,3.67.23.18-1.91-.23-3.67-1.37-1.95-2.84-2.35-4-1.71-3.53-3.84S193.1,17.4,194.1,18a1.19,1.19,0,0,1,.05,2.19"/><path class="cls-4" d="M213.24,26.1c-.5-1,.7-1.49,1.09-.86s-.51.93-.51.93a.78.78,0,0,0,1.22-.29,1.51,1.51,0,0,0-.77-2.24c-1.41-.48-2.59,1-2.84,1.86-.17.55-.47,2.58-.74,3.9-.38,1.87-3.1,1.63-5.27,1.68a3.85,3.85,0,0,1-2.48-.58l-.06-.05A4,4,0,0,1,202.3,28c0-2.16-.19-4.89,1.68-5.27,1.33-.26,3.35-.57,3.91-.74.84-.25,2.33-1.43,1.85-2.84a1.5,1.5,0,0,0-2.23-.77.78.78,0,0,0-.3,1.22s.26-.9.93-.5.1,1.59-.86,1.08a1.19,1.19,0,0,1,.06-2.19c1-.55,2.64-.43,3.1,1.73s-1.94,3.4-3.52,3.84-2.45.71-2.85,2.35-.9,3-.23,3.67,1.91.13,3.67-.23,2-1.37,2.36-2.84,1.7-4,3.84-3.53,2.27,2.11,1.73,3.11a1.2,1.2,0,0,1-2.2.05"/><path class="cls-4" d="M208.9,22.45l-.05-.05.57-.58.56-.55.06.05a.73.73,0,0,0,.16.85l1,1s.46.46.89.2l.1.11-.55.56-.58.57-.1-.1c.25-.43-.21-.89-.21-.89l-1-1a.75.75,0,0,0-.85-.16"/><path class="cls-4" d="M200.72,25.37A1.65,1.65,0,0,0,199.08,27v1.51a1.64,1.64,0,0,1,3.28,0V27a1.64,1.64,0,0,0-1.64-1.65"/><path class="cls-4" d="M200.72,39.72a1.63,1.63,0,0,0,1.64-1.64V36.56a1.64,1.64,0,0,1-3.28,0v1.52a1.64,1.64,0,0,0,1.64,1.64"/><path class="cls-4" d="M193.55,32.55a1.64,1.64,0,0,0,1.64,1.64h1.52a1.64,1.64,0,0,1,0-3.28h-1.52a1.63,1.63,0,0,0-1.64,1.64"/><path class="cls-4" d="M207.9,32.55a1.64,1.64,0,0,0-1.64-1.64h-1.52a1.64,1.64,0,0,1,0,3.28h1.52a1.65,1.65,0,0,0,1.64-1.64"/><polygon class="cls-4" points="202.2 17.67 199.24 17.67 198.57 18.62 200.72 20.76 202.86 18.62 202.2 17.67"/><polygon class="cls-4" points="202.2 44.24 199.24 44.24 198.57 45.18 200.72 47.33 202.86 45.18 202.2 44.24"/><polygon class="cls-4" points="215.05 31 212.08 31 211.42 31.95 213.56 34.09 215.71 31.95 215.05 31"/><polygon class="cls-4" points="189.35 31 186.38 31 185.72 31.95 187.87 34.09 190.01 31.95 189.35 31"/><line class="cls-5" x1="172.44" y1="9.23" x2="172.44" y2="55.77"/></svg>