<svg id="Layer_1" data-name="Layer 1" xmlns="http://www.w3.org/2000/svg" viewBox="0 0 500 500"><defs><style>.cls-1{fill:#d52063;}</style></defs><title>Artboard 1 copy 2</title><g id="gZ59xq"><path class="cls-1" d="M467.68,168.3v20.42c-.25,1.24-.63,2.44-.78,3.7-2.27,18.71-8,36.35-19.24,51.48-7.73,10.37-16.72,19.92-25.91,29.1q-79.11,79.59-158.7,158.78a24.77,24.77,0,0,1-8.17,5.82c-7.15,2.78-12.76-.48-17.83-5.53q-84.41-84.51-169-168.95c-29.59-29.61-40.9-65.31-33.65-106.37,8.85-49.87,51.1-89.09,101.61-94.51,40.85-4.4,75.17,9.26,102.58,39.88,4.06,4.57,7.59,9.69,11.31,14.55.44-.29.73-.38.87-.6.58-.8,1.11-1.67,1.7-2.47,29.34-40.67,69-58.92,118.38-50,48.72,8.79,79.62,39.22,93.2,86.89C465.79,156.29,466.52,162.35,467.68,168.3Z"/></g></svg>