<?xml version="1.0" encoding="utf-8"?>
<!-- Generator: Adobe Illustrator 21.0.2, SVG Export Plug-In . SVG Version: 6.00 Build 0)  -->
<svg version="1.1" id="Layer_1" xmlns="http://www.w3.org/2000/svg" xmlns:xlink="http://www.w3.org/1999/xlink" x="0px" y="0px"
	 viewBox="0 0 499.6 499.6" style="enable-background:new 0 0 499.6 499.6;" xml:space="preserve">
<style type="text/css">
	.st0{fill:none;stroke:#6E6F72;stroke-width:0.4118;stroke-miterlimit:10;}
	.st1{fill:#3B4579;}
	.st2{fill:#07AB9F;}
	.st3{fill:#2F348B;}
	.st4{fill:#B2832C;}
</style>
<g>
	<line class="st0" x1="287.3" y1="223.4" x2="287.3" y2="282.3"/>
	<g>
		<g>
			<g>
				<path class="st1" d="M89.8,223.7h0.1c5.4,0,9.6,2,12.6,6c0.8,1.1,1.2,2.6,1.2,4.4l-0.3,0.5l-4,0.2h-1.6l-0.3-0.3l0.3-0.9
					c0-3.4-1.2-5.8-3.7-7c-1.3-0.5-2.4-0.8-3.4-0.8h-0.8c-3.7,0-5.9,1.5-6.9,4.6v0.9c0,3.7,3.5,6.8,10.6,9.4
					c5.2,2.3,8.4,4.2,9.7,5.7c1.4,1.6,2.1,3.2,2.1,4.9c0,3.2-1.6,6-4.9,8.3c-3.1,1.9-6.6,2.9-10.7,2.9c-6,0-10.2-2.2-12.7-6.5
					c-0.4-0.9-0.7-1.5-0.7-1.9c2.3-0.9,3.7-1.3,4.1-1.3c0.6,2,1.9,3.7,4.1,5.3c1.9,1,3.3,1.6,4.3,1.9h1.7c6.5,0,9.8-1.7,9.8-5v-0.5
					c0-3.8-3.8-7.2-11.4-10.2c-4.5-2.2-7.2-4-8.3-5.4c-1.2-1.6-1.7-3.3-1.7-5v-1.3c0-3.9,2.8-6.7,8.5-8.4L89.8,223.7z"/>
				<path class="st1" d="M137.5,223.8l0.3,0.3l0.1,2.7l-14.3,0v35.4l-0.3,0.3H119l-0.3-0.3l0.4-34.7c0-0.6-0.2-1-0.6-1h-12.8
					l-0.1-0.2h-0.2v-2.5H137.5z"/>
				<path class="st1" d="M146.7,223.7l9.2,19.2l0.6,0.9l10.3-20.1h3c-1,2.3-4.8,9.8-11.5,22.4v16.1l-0.3,0.3h-4.8l-0.1-0.2h-0.2
					l-0.1-10.2v-5.4c0-0.6-3.8-8.2-11.3-22.9l0.2-0.1H146.7z"/>
				<path class="st1" d="M173,223.7h0.4h3.8h0.6c0.2,0,0.2,6,0.2,17.9c0,11.9,0.2,17.9,0.7,18l5.1,0h11.9l0.3,0.3v2.2l-0.3,0.3
					l-22.8,0l-0.2-0.1V224L173,223.7z"/>
				<path class="st1" d="M214.1,223.9h1.9c6.4,0,11.2,3.3,14.4,9.8c1.2,3.2,1.8,6.3,1.8,9.3c0,7.1-3,12.6-8.9,16.7
					c-3.5,1.8-7,2.8-10.5,2.8c-5.7,0-10.3-3.1-13.9-9.3c-1.6-3.4-2.4-6.8-2.4-10.3c0-8.3,3.8-14.2,11.4-17.7
					C210.4,224.3,212.5,223.9,214.1,223.9z M200.4,241.3c0,8.5,3.2,14.3,9.6,17.5c2.2,0.8,4.1,1.2,5.8,1.2c2.8,0,5.6-1.2,8.5-3.6
					c2.4-2.7,3.5-6.7,3.5-12.1v-0.1c0-8.5-3.2-14.3-9.6-17.4c-2.1-0.8-3.9-1.2-5.4-1.2h-1.3c-4.6,1.6-7.4,3.2-8.4,5
					C201.3,233.6,200.4,237.2,200.4,241.3z"/>
				<path class="st1" d="M239.7,223.6h6.4c6.4,0,10.4,2.2,12,6.6c0.4,1.1,0.6,2.1,0.6,2.9v1.4c-0.9,3.4-1.6,5.2-2.1,5.2
					c-0.5,0.7-2.1,2-4.7,3.9c0,1,3.3,5.7,9.9,13.9l5.3,5.9l-0.1,0.1h-0.4c-4,0.3-7.6-1.4-10.8-5.3c-3.6-4.7-6.2-8.6-7.9-11.7
					c-0.7-0.8-2.1-1.2-4-1.2c-1.9,0-2.9,0.2-2.9,0.5l-0.1,16.2l-0.1,0.1c-2.7,0-4.1-0.1-4.1-0.4l0.2-37.9l0.1-0.1L239.7,223.6z
					 M240.9,226.4L241,243h6.2c3.5,0,5.8-1.5,6.8-4.6l0.5-3.4v-0.3c0-3.8-1.3-6.3-3.8-7.6C247.8,225.9,244.6,225.7,240.9,226.4z"/>
				<path class="st1" d="M269.7,223.8h4.6l0.3,0.3v13.5l-0.2,25.1l-0.2,0.2h-4.6l-0.3-0.3v-38.4L269.7,223.8z"/>
			</g>
			<path class="st2" d="M224.5,218.1c-2.4,3.3-4.1,11.2-6.3,18.3c-2.5,7-9.4,5.3-9.4,0.3c0-4.6,8.3-7.4,9.9-7.9
				c0.1,0,0.2-0.2,0.1-0.3l-0.1-0.2c-0.1-0.1-0.1-0.1-0.2-0.1c-0.6,0.2-3.3,0.9-7.2,2.9c-6.2,3.5-5.8,11.5-0.3,12.7
				c5.5,1.2,9.2-2,10.8-6.8c1.6-4.8,3.3-14.4,5.4-17c2.1-2.6,5,0.4,3.7,2.5c-1.1,1.8-3.9,3.2-4.8,3.7c-0.1,0.1-0.2,0.2-0.1,0.3
				l0.1,0.1c0.1,0.1,0.2,0.1,0.4,0.1l3.9-1.7c4.1-2.2,2.8-5.7,1.8-7c-0.6-0.7-2.2-1.7-4-1.7C226.9,216.2,225.6,216.7,224.5,218.1"/>
		</g>
		<g>
			<g>
				<path class="st1" d="M202.7,266.3L202.7,266.3c2.2,0,3.9,0.8,5.1,2.4c0.3,0.5,0.5,1,0.5,1.8l-0.1,0.2l-1.6,0.1h-0.6l-0.1-0.1
					l0.1-0.4c0-1.4-0.5-2.3-1.5-2.8c-0.5-0.2-1-0.3-1.4-0.3h-0.3c-1.5,0-2.4,0.6-2.8,1.9v0.4c0,1.5,1.4,2.8,4.3,3.8
					c2.1,0.9,3.4,1.7,3.9,2.3c0.6,0.6,0.9,1.3,0.9,2c0,1.3-0.7,2.4-2,3.4c-1.2,0.8-2.7,1.2-4.3,1.2c-2.4,0-4.1-0.9-5.1-2.6
					c-0.2-0.3-0.3-0.6-0.3-0.7c0.9-0.4,1.5-0.5,1.7-0.5c0.2,0.8,0.8,1.5,1.7,2.1c0.8,0.4,1.3,0.6,1.8,0.8h0.7c2.6,0,4-0.7,4-2v-0.2
					c0-1.5-1.5-2.9-4.6-4.1c-1.8-0.9-2.9-1.6-3.4-2.2c-0.5-0.7-0.7-1.3-0.7-2v-0.5c0-1.6,1.1-2.7,3.4-3.4L202.7,266.3z"/>
				<path class="st1" d="M214.8,266.3h1.9l0.1,0.1v5.4l-0.1,10.1l-0.1,0.1h-1.9l-0.1-0.1v-15.5L214.8,266.3z"/>
				<path class="st1" d="M223.1,266.3h0.2h1.5h0.2c0.1,0,0.1,2.4,0.1,7.2c0,4.8,0.1,7.2,0.3,7.3l2.1,0h4.8l0.1,0.1v0.9l-0.1,0.1
					l-9.2,0l-0.1,0v-15.5L223.1,266.3z"/>
				<path class="st1" d="M235.2,266.3l4.5,12.3l0.2,0.1c1.7-4.4,3.2-8.6,4.5-12.5h1.2h0.3c-1.6,3.9-3.4,8.3-5.2,13.2l-0.8,2.3h-1.1
					l-0.3,0.1c-1.5-4.9-3.4-10.1-5.5-15.6l0.1-0.1L235.2,266.3z"/>
				<path class="st1" d="M251.6,266.2h8.5l0.1,0.1v1l-0.1,0.1l-6.6-0.1l0.1,1.7v3.8l0.1,0.3h5.5l0.1,0.1v1l-0.1,0.1h-5.3l-0.2,0.2
					v0.7l0.1,5.4h5.5l1.2,0v1.1l-0.1,0.1h-8.6l-0.1-0.1v-15.5L251.6,266.2z"/>
				<path class="st1" d="M267.2,266.3h2.6c2.6,0,4.2,0.9,4.8,2.6c0.2,0.5,0.2,0.9,0.2,1.2v0.6c-0.4,1.4-0.6,2.1-0.8,2.1
					c-0.2,0.3-0.8,0.8-1.9,1.6c0,0.4,1.3,2.3,4,5.6l2.2,2.4l-0.1,0.1H278c-1.6,0.1-3.1-0.6-4.4-2.1c-1.5-1.9-2.5-3.5-3.2-4.7
					c-0.3-0.3-0.8-0.5-1.6-0.5c-0.8,0-1.2,0.1-1.2,0.2l0,6.5l-0.1,0.1c-1.1,0-1.6-0.1-1.6-0.2l0.1-15.3l0-0.1L267.2,266.3z
					 M267.7,267.4l0.1,6.7h2.5c1.4,0,2.3-0.6,2.7-1.9l0.2-1.4v-0.1c0-1.5-0.5-2.6-1.5-3.1C270.5,267.2,269.1,267.1,267.7,267.4z"/>
			</g>
		</g>
	</g>
	<g>
		<g>
			<path class="st3" d="M414.4,263c-0.3-0.4-0.9-0.2-1.3,0c-0.4,0.3-0.9,0.6-1.3,0.9c-3.8,2.2-7.7,1.5-10.2-2
				c-0.8-1.1-1.4-2.4-1.8-3.7c-1.1-3.1-1.3-6.3,0.2-9.5c1-2.1,3.1-3.2,5-2.8c2.5,0.5,4.4,2.5,4.5,4.8c0.1,0.8,0.7,0.8,1.2,0.4
				c0.9-0.9,1.7-1.7,2.6-2.6c0.9-1,0.9-1.4-0.2-2.2c-1.9-1.3-4.1-1.6-6.8-1.6c-0.6,0-1.7,0.1-2.7,0.2c-4.2,0.5-7.4,2.6-9.6,6.4
				c-3,5-0.7,12.4,4.8,14.6c3.2,1.3,6.5,1.7,9.8,1c2.1-0.4,4.1-1.3,5.6-2.9C414.4,263.8,414.7,263.3,414.4,263"/>
			<path class="st3" d="M393.7,266.4L393.7,266.4c-1.5,0-2.3-2-2.3-2l-8.8-19.6h-6.8c-1,0-0.2,0.7-0.2,0.7l1.5,1.2v2l-5.2,12.1h0v0
				l-1.9,4.4c-0.6,1.3-2.5,1.2-2.5,1.2v1h3.6l2.2-4.7h10.3l1.5,3.8l0.4,1h8.4v-1H393.7z M374.1,260.7l4.7-10.8l4,10.8H374.1z"/>
			<path class="st3" d="M362.6,259.2l-8.9-14.4h-8.1v0.7l2.2,1.3V264c-0.1,2.3-2.5,2.7-2.5,2.7v0.7h3.6c1.3,0,1.2-1.6,1.2-1.6v-15.9
				l11.1,17.5h3.9v-19.3c0-1.7,2.4-2.7,2.4-2.7v-0.7h-4.9V259.2z"/>
			<path class="st4" d="M349,274.5c0,0.7-0.1,1.5-0.1,2.2c0,0.7,0,1.4,0,2.2c0,0.2,0,0.3,0,0.5c0,0.2,0,0.3,0,0.4
				c0,0.1-0.1,0.3-0.1,0.4c0,0.1-0.1,0.3-0.2,0.4c-0.1,0.2-0.3,0.3-0.5,0.4c-0.2,0.1-0.4,0.2-0.6,0.3c0,0-0.1,0-0.2,0.1
				c-0.1,0-0.1,0.1-0.2,0.1c-0.1,0-0.2,0-0.3,0c-0.1,0-0.2,0-0.4,0c-0.1,0-0.2,0-0.3,0c-0.1,0-0.2-0.1-0.3-0.1
				c-0.1-0.1-0.2-0.2-0.4-0.3c-0.1-0.1-0.2-0.2-0.3-0.3c-0.1-0.1-0.1-0.3-0.1-0.4c0-0.1,0.1-0.2,0.1-0.2c0.1-0.1,0.2-0.1,0.3-0.2
				c0.1,0,0.2-0.1,0.3-0.1c0.1,0,0.2-0.1,0.3-0.1c0.1,0,0.2,0,0.3,0c0,0.1,0,0.2,0,0.3s0,0.2-0.1,0.3c0,0.1,0,0.2,0,0.3
				c0,0.1,0.1,0.2,0.1,0.3c0.2,0,0.3,0,0.4-0.1c0.1-0.1,0.2-0.2,0.2-0.3c0-0.1,0.1-0.3,0.1-0.4c0-0.1,0-0.3,0-0.4c0-0.1,0-0.3,0-0.4
				c0-0.1,0-0.3,0-0.4v-4.2c0,0-0.1-0.1-0.2-0.1c-0.1,0-0.1,0-0.2,0c-0.1,0-0.1,0-0.1-0.1c0,0,0-0.1,0-0.2c0,0,0,0,0,0c0,0,0,0,0,0
				c0.3,0,0.7,0,1,0C348.3,274.4,348.6,274.4,349,274.5L349,274.5z"/>
			<path class="st4" d="M358.1,279.4c0,0,0,0.1,0,0.2c0,0.1,0,0.1,0,0.2c0,0,0,0.1,0,0.2c0,0.1-0.1,0.1-0.1,0.2
				c0,0.1-0.1,0.1-0.1,0.2c0,0-0.1,0.1-0.2,0.1h-4.8c0,0-0.1,0-0.1,0c0,0-0.1,0-0.1-0.1c0,0,0-0.1,0-0.1c0,0,0-0.1,0.1-0.1
				c0,0,0.1,0,0.1,0c0,0,0.1,0,0.1,0c0,0,0.1,0,0.1,0c0,0,0.1,0,0.1-0.1v-1.2c0-0.2,0-0.4,0-0.6c0-0.2,0-0.4,0-0.6v-2.7
				c0,0-0.1-0.1-0.2-0.1c-0.1,0-0.2,0-0.2-0.1c-0.1,0-0.1-0.1-0.2-0.1c0,0,0-0.1,0.1-0.2c0,0,0.1,0,0.2,0c0.1,0,0.3,0,0.4,0
				c0.2,0,0.3,0,0.5,0c0.2,0,2.8,0,2.8,0h0.1c0.1,0,0.2,0,0.3,0c0.1,0,0.2,0,0.3,0c0,0,0.1,0,0.1,0c0,0,0.1,0,0.1,0.1
				c0.1,0,0.1,0.1,0.1,0.2c0,0.1,0.1,0.1,0.1,0.2c0,0.1,0,0.2,0,0.2c0,0.1,0,0.2,0,0.2c-0.1,0-0.2,0-0.3,0c-0.1,0-0.2,0-0.4,0
				c-0.1,0-0.2,0-0.3,0c-0.1,0-0.2,0-0.2-0.1c-0.1-0.1-0.1-0.1-0.2-0.2c-0.1-0.1-0.1-0.2-0.2-0.3c0,0-0.1-0.1-0.2-0.1
				c-0.1,0-0.2,0-0.3,0c-0.1,0-0.2,0-0.3,0c-0.1,0-0.2,0-0.2,0c0,0-0.1,0-0.1,0c0,0-0.1,0.1-0.1,0.1v2.1l0,0.1c0.2,0,0.3,0,0.4,0
				c0.1,0,0.2-0.1,0.2-0.1c0-0.1,0.1-0.1,0.1-0.2c0-0.1,0.1-0.1,0.1-0.1h0.9c0.1,0,0.1,0,0.2,0.1c0,0,0,0.1,0,0.1c0,0.1,0,0.1,0,0.2
				c0,0.1-0.1,0.1-0.1,0.2c0,0.1-0.1,0.1-0.1,0.2c-0.1,0.1-0.1,0.1-0.1,0.1h-1.6v2.5l0.1,0.1h1.3c0.1,0,0.2,0,0.2-0.1
				c0.1-0.1,0.1-0.1,0.2-0.2c0.1-0.1,0.1-0.2,0.1-0.2c0-0.1,0.1-0.1,0.1-0.1L358.1,279.4L358.1,279.4z"/>
			<path class="st4" d="M366.1,277.9c0,0.1-0.1,0.1-0.1,0.2c0,0.1-0.6,1.6-0.8,2.1c0,0.1-0.1,0.2-0.3,0.2c-0.2,0-0.5,0-0.6,0
				c-0.2,0-0.3-0.1-0.4-0.1c-0.1,0-0.1-0.1-0.2-0.2c0-0.1-0.1-0.1-0.1-0.2c-0.3-0.6-0.5-1.2-0.8-1.8c-0.3-0.6-0.5-1.2-0.8-1.8
				c-0.1-0.2-0.7-1.8-0.7-1.8c0,0,0.1,0,0.2,0c0.1,0,1.4,0,1.5,0c0.1,0,0.1,0,0.2,0c0,0,0.1,0.2,0.2,0.3c0.1,0.2,0.2,0.4,0.3,0.7
				c0.1,0.3,0.2,0.6,0.4,0.9c0.1,0.3,0.3,0.6,0.4,0.9c0.1,0.3,0.2,0.5,0.3,0.8c0.1,0.2,0.2,0.4,0.2,0.5c0,0,0,0.1,0.1,0.1
				c0,0,0,0,0.1,0c0,0,0,0,0.1,0c0-0.1,0-0.1,0.1-0.2c0,0,0.1-0.1,0.1-0.2c0.1-0.2,0.2-0.4,0.2-0.5c0.1-0.2,0.1-0.4,0.2-0.5
				c0-0.1,0-0.2,0-0.3c0-0.1,0-0.2,0-0.3c0-0.1-0.1-0.3-0.2-0.4c-0.1-0.2-0.2-0.4-0.2-0.6c-0.1-0.2-0.2-0.4-0.2-0.5
				c-0.1-0.2-0.2-0.3-0.2-0.4c0,0-0.1-0.1-0.1-0.1c-0.1,0-0.1,0-0.2,0c-0.1,0-0.1,0-0.2-0.1c0,0-0.1-0.1-0.1-0.1
				c0-0.1,0-0.1,0.1-0.2c0,0,0.1,0,0.3,0c0.2,0,1.3,0,1.4,0c0.1,0,0.2,0,0.3,0c0.1,0,0.1,0,0.2,0c0,0,0.1,0.1,0.1,0.2
				c0,0.1,1.8,4.1,1.8,4.1c0.1,0,0.1,0,0.1,0c0-0.1,1-2.5,1.1-2.7c0.1-0.3,0.1-0.5,0.1-0.7c0-0.2,0-0.3-0.1-0.4
				c-0.1-0.1-0.2-0.1-0.3-0.2c-0.1,0-0.2-0.1-0.3-0.1c-0.1,0-0.1-0.1-0.1-0.2c0,0,0-0.1,0-0.1c0,0,0.1-0.1,0.3-0.1
				c0.1,0,0.3,0,0.4,0c0.2,0,0.3,0,0.4,0c0.1,0,0.2,0,0.3,0c0,0,0.1,0,0.1,0c0,0,0,0.1,0,0.1c0,0.1,0,0.2,0,0.3c0,0.1,0,0.2,0,0.3
				c0,0.2-0.1,0.3-0.2,0.4c-0.1,0.1-0.1,0.3-0.2,0.4l-1.8,4.3c0,0.1-0.1,0.2-0.3,0.2l-0.9,0c-0.1,0-0.1,0-0.2-0.1
				c0,0-0.1-0.1-0.1-0.1l-1-2.3H366.1z"/>
			<path class="st4" d="M379.8,279.4c0,0,0,0.1,0,0.2c0,0.1,0,0.1,0,0.2c0,0,0,0.1,0,0.2c0,0.1-0.1,0.1-0.1,0.2
				c0,0.1-0.1,0.1-0.1,0.2c0,0-0.1,0.1-0.2,0.1h-4.8c0,0-0.1,0-0.1,0c0,0-0.1,0-0.1-0.1c0,0,0-0.1,0-0.1c0,0,0-0.1,0.1-0.1
				c0,0,0.1,0,0.1,0c0,0,0.1,0,0.1,0c0,0,0.1,0,0.1,0c0,0,0.1,0,0.1-0.1v-1.2c0-0.2,0-0.4,0-0.6c0-0.2,0-0.4,0-0.6v-2.7
				c0,0-0.1-0.1-0.2-0.1c-0.1,0-0.2,0-0.2-0.1c-0.1,0-0.1-0.1-0.2-0.1c0,0,0-0.1,0.1-0.2c0,0,0.1,0,0.2,0c0.1,0,0.3,0,0.4,0
				c0.2,0,3.3,0,3.3,0h0.1c0.1,0,0.2,0,0.3,0c0.1,0,0.2,0,0.3,0c0,0,0.1,0,0.1,0c0,0,0.1,0,0.1,0.1c0.1,0,0.1,0.1,0.1,0.2
				c0,0.1,0.1,0.1,0.1,0.2c0,0.1,0,0.2,0,0.2c0,0.1,0,0.2,0,0.2c-0.1,0-0.2,0-0.3,0c-0.1,0-0.2,0-0.4,0c-0.1,0-0.2,0-0.3,0
				c-0.1,0-0.2,0-0.2-0.1c-0.1-0.1-0.1-0.1-0.2-0.2c-0.1-0.1-0.1-0.2-0.2-0.3c0,0-0.1-0.1-0.2-0.1c-0.1,0-0.2,0-0.3,0
				c-0.1,0-0.2,0-0.3,0c-0.1,0-0.2,0-0.2,0c0,0-0.1,0-0.1,0c0,0-0.1,0.1-0.1,0.1v2.1l0,0.1c0.2,0,0.3,0,0.4,0c0.1,0,0.2-0.1,0.2-0.1
				c0-0.1,0.1-0.1,0.1-0.2c0-0.1,0.1-0.1,0.1-0.1h0.9c0.1,0,0.1,0,0.2,0.1c0,0,0,0.1,0,0.1c0,0.1,0,0.1,0,0.2c0,0.1-0.1,0.1-0.1,0.2
				c0,0.1-0.1,0.1-0.1,0.2c-0.1,0.1-0.1,0.1-0.1,0.1h-1.6v2.5l0.1,0.1h1.3c0.1,0,0.2,0,0.2-0.1c0.1-0.1,0.1-0.1,0.2-0.2
				c0.1-0.1,0.1-0.2,0.1-0.2c0-0.1,0.1-0.1,0.1-0.1L379.8,279.4L379.8,279.4z"/>
			<path class="st4" d="M387.6,280.3c-0.3,0-0.5,0-0.8,0.1c-0.3,0-0.6,0-0.8,0c-0.3,0-0.6,0-0.8,0c-0.3,0-0.6,0-0.8,0
				c0,0-0.1,0-0.2,0c-0.1,0-0.2,0-0.3,0c-0.1,0-0.2,0-0.3,0c-0.1,0-0.2,0-0.2,0c0,0-0.1,0-0.1-0.1c0,0,0-0.1,0-0.1
				c0,0,0-0.1,0.1-0.1c0,0,0-0.1,0.1-0.1c0,0,0-0.1,0-0.1c0,0,0-4.3,0-4.4c0-0.1,0-0.2,0-0.3s0-0.2,0-0.3c0-0.1,0-0.2,0.1-0.3
				c0-0.1,0.1-0.1,0.2-0.1h1.4c0.1,0,0.1,0,0.2,0.1c0.1,0,0.1,0.1,0.1,0.1c-0.1,0-0.1,0.1-0.2,0.1c0,0-0.1,0.1-0.1,0.2
				c0,0.1,0,0.2,0,0.3c0,0.2,0,4.2,0,4.3c0,0.2,0,0.2,0,0.3l0.1,0.1c0,0,0.1,0,0.2,0c0.1,0,0.2,0,0.4,0c0.1,0,0.2,0,0.4,0
				c0.1,0,0.2,0,0.3-0.1c0.1-0.1,0.2-0.1,0.2-0.2c0.1-0.1,0.1-0.2,0.2-0.2c0,0,0.1-0.1,0.2-0.1c0.1,0,0.2,0,0.3,0c0.1,0,0.2,0,0.3,0
				c0.1,0,0.2,0,0.2,0.1c0.1,0,0.1,0.1,0.1,0.2c0,0.1-0.1,0.2-0.1,0.3c-0.1,0.1-0.1,0.2-0.2,0.3
				C387.7,280.2,387.6,280.3,387.6,280.3"/>
			<path class="st4" d="M395.9,280.3c-0.3,0-0.5,0-0.8,0.1c-0.3,0-0.6,0-0.8,0c-0.3,0-0.6,0-0.8,0c-0.3,0-0.6,0-0.8,0
				c0,0-0.1,0-0.2,0c-0.1,0-0.2,0-0.3,0c-0.1,0-0.2,0-0.3,0c-0.1,0-0.2,0-0.2,0c0,0-0.1,0-0.1-0.1c0,0,0-0.1,0-0.1
				c0,0,0-0.1,0.1-0.1c0,0,0-0.1,0.1-0.1c0,0,0-0.1,0-0.1c0,0,0-4.6,0-4.7s0-0.2,0-0.3c0-0.1,0-0.2,0.1-0.3c0-0.1,0.1-0.1,0.2-0.1
				h1.4c0.1,0,0.1,0,0.2,0.1c0.1,0,0.1,0.1,0.1,0.1c-0.1,0-0.1,0.1-0.2,0.1c0,0-0.1,0.1-0.1,0.2c0,0.1,0,0.2,0,0.3
				c0,0.2,0,0.4,0,0.6c0,0.2,0,0.5,0,0.8c0,0.3,0,0.6,0,0.8c0,0.3,0,0.6,0,0.8c0,0.3,0,0.5,0,0.7c0,0.2,0,0.4,0,0.6
				c0,0.2,0,0.2,0,0.3l0.1,0.1c0,0,0.1,0,0.2,0c0.1,0,0.2,0,0.4,0c0.1,0,0.2,0,0.4,0c0.1,0,0.2,0,0.3-0.1c0.1-0.1,0.2-0.1,0.2-0.2
				c0.1-0.1,0.1-0.2,0.2-0.2c0,0,0.1-0.1,0.2-0.1c0.1,0,0.2,0,0.3,0c0.1,0,0.2,0,0.3,0c0.1,0,0.2,0,0.2,0.1c0.1,0,0.1,0.1,0.1,0.2
				c0,0.1-0.1,0.2-0.1,0.3c-0.1,0.1-0.1,0.2-0.2,0.3C396,280.2,396,280.3,395.9,280.3"/>
			<path class="st4" d="M405.2,279.4c0,0,0,0.1,0,0.2c0,0.1,0,0.1,0,0.2c0,0,0,0.1,0,0.2c0,0.1-0.1,0.1-0.1,0.2
				c0,0.1-0.1,0.1-0.1,0.2c0,0-0.1,0.1-0.2,0.1H400c0,0-0.1,0-0.1,0c0,0-0.1,0-0.1-0.1c0,0,0-0.1,0-0.1c0,0,0-0.1,0.1-0.1
				c0,0,0.1,0,0.1,0c0,0,0.1,0,0.1,0c0,0,0.1,0,0.1,0c0,0,0.1,0,0.1-0.1v-1.2c0-0.2,0-0.4,0-0.6c0-0.2,0-0.4,0-0.6v-2.7
				c0,0-0.1-0.1-0.2-0.1c-0.1,0-0.2,0-0.2-0.1c-0.1,0-0.1-0.1-0.2-0.1c0,0,0-0.1,0.1-0.2c0,0,0.1,0,0.2,0c0.1,0,0.3,0,0.4,0
				c0.2,0,0.3,0,0.5,0c0.2,0,2.8,0,2.8,0h0.1c0.1,0,0.2,0,0.3,0c0.1,0,0.2,0,0.3,0c0,0,0.1,0,0.1,0c0,0,0.1,0,0.1,0.1
				c0.1,0,0.1,0.1,0.1,0.2c0,0.1,0.1,0.1,0.1,0.2c0,0.1,0,0.2,0,0.2c0,0.1,0,0.2,0,0.2c-0.1,0-0.2,0-0.3,0c-0.1,0-0.2,0-0.4,0
				c-0.1,0-0.2,0-0.3,0c-0.1,0-0.2,0-0.2-0.1c-0.1-0.1-0.1-0.1-0.2-0.2c-0.1-0.1-0.1-0.2-0.2-0.3c0,0-0.1-0.1-0.2-0.1
				c-0.1,0-0.2,0-0.3,0c-0.1,0-0.2,0-0.3,0c-0.1,0-0.2,0-0.2,0c0,0-0.1,0-0.1,0c0,0-0.1,0.1-0.1,0.1v2.1l0,0.1c0.2,0,0.3,0,0.4,0
				c0.1,0,0.2-0.1,0.2-0.1c0-0.1,0.1-0.1,0.1-0.2c0-0.1,0.1-0.1,0.1-0.1h0.9c0.1,0,0.1,0,0.2,0.1c0,0,0,0.1,0,0.1c0,0.1,0,0.1,0,0.2
				c0,0.1-0.1,0.1-0.1,0.2c0,0.1-0.1,0.1-0.1,0.2c-0.1,0.1-0.1,0.1-0.1,0.1h-1.6v2.5l0.1,0.1h1.3c0.1,0,0.2,0,0.2-0.1
				c0.1-0.1,0.1-0.1,0.2-0.2c0.1-0.1,0.1-0.2,0.1-0.2c0-0.1,0.1-0.1,0.1-0.1L405.2,279.4L405.2,279.4z"/>
			<path class="st4" d="M410.7,278.6v1.2c0,0.1,0,0.2,0,0.3c0,0.1,0,0.1,0,0.2c0,0.1-0.1,0.1-0.2,0.1c-0.1,0-0.2,0-0.3,0
				c-0.1,0-0.3,0-0.5,0c-0.2,0-0.3,0-0.5,0s-0.3,0-0.3,0c0,0-0.1,0-0.1-0.1c0,0,0-0.1,0-0.2c0-0.1,0-0.1,0.1-0.2
				c0-0.1,0-0.1,0.1-0.1c0-0.1,0-0.2,0-0.3c0-0.1,0-0.2,0-0.3v-4c0-0.2,0-0.3-0.1-0.3c-0.1-0.1-0.1-0.1-0.2-0.1
				c-0.1,0-0.1-0.1-0.2-0.1c0,0,0-0.1,0-0.2c0,0,0-0.1,0.1-0.1h1.9c0,0,0.1,0,0.1,0c0,0,0.1,0,0.1,0.1c0,0,0.1,0.1,0.1,0.1
				c0,0,0.1,0,0.1,0c0.1,0,0.2,0,0.3,0c0.1,0,0.3-0.1,0.4-0.1c0.1,0,0.3-0.1,0.4-0.1c0.1,0,0.3,0,0.3,0c0.2,0,0.3,0,0.4,0
				c0.1,0,0.3,0,0.3,0.1c0.1,0,0.2,0,0.2,0.1c0.1,0,0.1,0,0.1,0c0.2,0.1,0.4,0.3,0.6,0.5c0.1,0.2,0.2,0.3,0.3,0.5
				c0.1,0.2,0.1,0.3,0.1,0.5c0,0.2,0,0.3-0.1,0.5c-0.1,0.2-0.2,0.3-0.3,0.4c0,0-0.1,0.1-0.1,0.1c-0.1,0.1-0.1,0.1-0.2,0.2
				c-0.1,0.1-0.2,0.2-0.3,0.2c-0.1,0.1-0.2,0.2-0.2,0.2c-0.1,0.1-0.1,0.1-0.2,0.2c0,0-0.1,0.1-0.1,0.1c0,0.1,0,0.2,0.1,0.4
				c0.1,0.2,0.2,0.3,0.3,0.5c0.1,0.2,0.2,0.4,0.3,0.5c0.1,0.2,0.2,0.3,0.2,0.4c0,0.1,0.1,0.1,0.2,0.1c0,0,0.1,0,0.2,0.1
				c0.1,0,0.1,0,0.2,0.1c0.1,0,0.1,0.1,0.1,0.1c0,0,0,0.1,0,0.2l0,0c-0.1,0-0.3,0-0.5,0c-0.2,0-0.4,0-0.6,0c-0.2,0-0.4,0-0.6,0
				c-0.2,0-0.4,0-0.5,0c0,0-0.1,0-0.2-0.1c-0.1-0.1-0.1-0.2-0.2-0.3c-0.1-0.1-0.2-0.3-0.2-0.4c-0.1-0.1-0.2-0.3-0.2-0.4
				c-0.1-0.1-0.1-0.3-0.2-0.4c-0.1-0.1-0.1-0.2-0.1-0.2c0,0-0.1-0.1-0.1-0.1c-0.1,0-0.1,0-0.2,0c-0.1,0-0.1,0-0.2,0.1
				C410.8,278.5,410.7,278.6,410.7,278.6 M410.7,278c0.2,0,0.4,0,0.7-0.1c0.2-0.1,0.4-0.2,0.6-0.4c0.2-0.2,0.3-0.3,0.4-0.5
				c0.1-0.2,0.2-0.4,0.2-0.7c0-0.2,0-0.3-0.1-0.5c0-0.2-0.1-0.3-0.3-0.4c-0.1-0.1-0.2-0.1-0.4-0.2c-0.2-0.1-0.3-0.1-0.5-0.1
				c-0.2,0-0.3,0-0.4,0c-0.1,0-0.2,0.1-0.2,0.3V278z"/>
			<path class="st4" d="M422.2,276c0,0-0.1,0-0.1,0c0,0-0.1,0-0.1-0.1c0-0.1,0-0.1,0-0.2c0-0.1,0-0.1,0-0.2c0-0.1-0.1-0.2-0.2-0.3
				c-0.1-0.1-0.2-0.2-0.3-0.2c-0.1-0.1-0.2-0.1-0.3-0.2c-0.1,0-0.2-0.1-0.3-0.1c-0.1,0-0.2,0-0.4-0.1c-0.1,0-0.2,0-0.3,0
				c-0.1,0-0.2,0.1-0.2,0.2c-0.1,0.1-0.1,0.2-0.1,0.4c0,0.1,0,0.2,0.1,0.3c0,0.1,0.1,0.1,0.2,0.2c0.2,0.1,0.3,0.3,0.5,0.4
				c0.2,0.1,0.4,0.3,0.7,0.4c0.2,0.1,0.5,0.3,0.7,0.4c0.2,0.1,0.4,0.3,0.6,0.5c0.2,0.2,0.3,0.4,0.4,0.6c0.1,0.2,0.2,0.4,0.2,0.7
				c0,0.2,0,0.3-0.1,0.5c0,0.1-0.1,0.3-0.2,0.4c-0.2,0.2-0.4,0.4-0.7,0.5c-0.3,0.1-0.7,0.2-1,0.2c-0.4,0-0.7,0-1.1,0
				c-0.4,0-0.7-0.1-1-0.2c-0.3-0.1-0.6-0.2-0.7-0.3c-0.2-0.1-0.3-0.2-0.3-0.4c0-0.1,0-0.2,0.1-0.3c0.1-0.1,0.1-0.2,0.2-0.3
				c0.1-0.1,0.2-0.2,0.2-0.3c0.1-0.1,0.2-0.2,0.2-0.2c0.1,0,0.1,0,0.2,0c0.1,0,0.1,0,0.1,0.1c0,0.1,0,0.1,0,0.2c0,0.1,0,0.1,0,0.2
				c0,0.1,0,0.2,0.1,0.3c0,0.1,0.1,0.2,0.2,0.2c0.1,0.1,0.1,0.1,0.2,0.2c0.1,0.1,0.2,0.1,0.2,0.2c0.1,0.1,0.2,0.1,0.3,0.2
				c0.1,0.1,0.3,0.1,0.4,0.1c0.1,0,0.3,0.1,0.4,0.1c0.1,0,0.3,0,0.4,0c0.1,0,0.2-0.1,0.3-0.2c0.1-0.1,0.1-0.2,0.1-0.4
				c0-0.1,0-0.1,0-0.2c0-0.1,0-0.1-0.1-0.2c0-0.1-0.1-0.1-0.1-0.2c-0.1-0.1-0.1-0.1-0.2-0.1l-2.4-1.6c-0.1-0.1-0.3-0.2-0.4-0.4
				c-0.1-0.2-0.2-0.3-0.2-0.5c0-0.2,0-0.3,0-0.5c0-0.2,0.1-0.3,0.2-0.5c0.2-0.3,0.4-0.4,0.7-0.6c0.3-0.1,0.6-0.2,0.9-0.3
				c0.3,0,0.6,0,1,0c0.3,0,0.6,0.1,0.9,0.1c0.1,0,0.3,0.1,0.4,0.1c0.2,0,0.3,0.1,0.4,0.2c0.1,0.1,0.1,0.2,0.1,0.3
				c0,0.1,0,0.2-0.1,0.3c0,0.1-0.1,0.2-0.2,0.3c-0.1,0.1-0.1,0.2-0.2,0.2C422.3,275.9,422.2,275.9,422.2,276"/>
			<path class="st4" d="M301.1,272.1c0.6,1.2-0.9,1.9-1.3,1.1c-0.5-0.8,0.6-1.2,0.6-1.2c-0.6-0.5-1.3-0.1-1.5,0.4
				c-0.2,0.5-0.8,2.2,1,2.8c1.8,0.6,3.2-1.3,3.5-2.3c0.2-0.7,0.6-3.2,0.9-4.9c0.5-2.3,3.9-2,6.6-2.1c2,0,2.9,0.6,3.1,0.7
				c0,0,0,0,0.1,0.1c0.1,0.2,0.8,1.1,0.7,3.1c-0.1,2.7,0.2,6.1-2.1,6.6c-1.7,0.3-4.2,0.7-4.9,0.9c-1.1,0.3-2.9,1.8-2.3,3.5
				c0.6,1.8,2.3,1.2,2.8,1c0.5-0.2,0.9-0.9,0.4-1.5c0,0-0.3,1.1-1.2,0.6c-0.8-0.5-0.1-2,1.1-1.3c1.2,0.6,1.2,2.1-0.1,2.7
				c-1.2,0.7-3.3,0.5-3.9-2.2c-0.6-2.7,2.4-4.2,4.4-4.8c1.8-0.5,3.1-0.9,3.5-2.9c0.5-2.3,1.1-3.7,0.3-4.6c-0.8-0.8-2.4-0.2-4.6,0.3
				c-2.1,0.4-2.4,1.7-2.9,3.5c-0.5,2-2.1,5-4.8,4.4c-2.7-0.6-2.8-2.6-2.2-3.9C299,270.9,300.5,270.9,301.1,272.1"/>
			<path class="st4" d="M306.5,276.6L306.5,276.6l-0.6,0.8l-0.7,0.7l-0.1-0.1c0,0,0.3-0.6-0.2-1.1l-1.3-1.3c0,0-0.6-0.6-1.1-0.3
				l-0.1-0.1l0.7-0.7l0.7-0.7l0.1,0.1c-0.3,0.5,0.3,1.1,0.3,1.1l1.3,1.3C305.9,276.9,306.5,276.6,306.5,276.6"/>
			<path class="st4" d="M324.9,279.5c1.2-0.6,1.9,0.9,1.1,1.3c-0.8,0.5-1.2-0.6-1.2-0.6c-0.5,0.6-0.1,1.3,0.4,1.5
				c0.5,0.2,2.2,0.8,2.8-1c0.6-1.8-1.3-3.2-2.3-3.5c-0.7-0.2-3.2-0.6-4.9-0.9c-2.3-0.5-2-3.9-2.1-6.6c0-2,0.6-2.9,0.7-3.1
				c0,0,0,0,0.1-0.1c0.2-0.1,1.1-0.8,3.1-0.7c2.7,0.1,6.1-0.2,6.6,2.1c0.3,1.7,0.7,4.2,0.9,4.9c0.3,1.1,1.8,2.9,3.5,2.3
				c1.8-0.6,1.2-2.3,1-2.8c-0.2-0.5-0.9-0.9-1.5-0.4c0,0,1.1,0.3,0.6,1.2c-0.5,0.8-2,0.1-1.3-1.1c0.6-1.2,2.1-1.2,2.7,0.1
				c0.7,1.2,0.5,3.3-2.2,3.9c-2.7,0.6-4.2-2.4-4.8-4.4c-0.5-1.8-0.9-3.1-2.9-3.5c-2.1-0.5-3.7-1.1-4.6-0.3c-0.8,0.8-0.4,2.6,0.1,4.8
				c0.4,2.1,1.9,2.2,3.8,2.7c2,0.5,5,2.1,4.4,4.8c-0.6,2.7-2.6,2.8-3.9,2.2C323.7,281.6,323.7,280.1,324.9,279.5"/>
			<path class="st4" d="M308.5,248.7c-1.2,0.6-1.9-0.9-1.1-1.3c0.8-0.5,1.2,0.6,1.2,0.6c0.5-0.6,0.1-1.3-0.4-1.5
				c-0.5-0.2-2.2-0.8-2.8,1c-0.6,1.8,1.3,3.2,2.3,3.5c0.7,0.2,3.2,0.6,4.9,0.9c2.3,0.5,2,3.9,2.1,6.6c0,2-0.6,2.9-0.7,3.1
				c0,0,0,0-0.1,0.1c-0.2,0.1-1.1,0.8-3.1,0.7c-2.7-0.1-6.1,0.2-6.6-2.1c-0.3-1.7-0.7-4.2-0.9-4.9c-0.3-1.1-1.8-2.9-3.5-2.3
				c-1.8,0.6-1.2,2.3-1,2.8c0.2,0.5,0.9,0.9,1.5,0.4c0,0-1.1-0.3-0.6-1.2c0.5-0.8,2-0.1,1.3,1.1c-0.6,1.2-2.1,1.2-2.7-0.1
				c-0.7-1.2-0.5-3.3,2.2-3.9c2.7-0.6,4.2,2.4,4.8,4.4c0.5,1.8,0.9,3.1,2.9,3.5c2.1,0.5,3.7,1.1,4.6,0.3c0.8-0.8,0.2-2.4-0.3-4.6
				c-0.5-2.1-1.7-2.4-3.5-2.9c-2-0.5-5-2.1-4.4-4.8c0.6-2.7,2.6-2.8,3.9-2.2C309.7,246.6,309.7,248.1,308.5,248.7"/>
			<path class="st4" d="M332.3,256.1c-0.6-1.2,0.9-1.9,1.3-1.1c0.5,0.8-0.6,1.2-0.6,1.2c0.6,0.5,1.3,0.1,1.5-0.4
				c0.2-0.5,0.8-2.2-1-2.8c-1.8-0.6-3.2,1.3-3.5,2.3c-0.2,0.7-0.6,3.2-0.9,4.9c-0.5,2.3-3.9,2-6.6,2.1c-2,0-2.9-0.6-3.1-0.7
				c0,0,0,0-0.1-0.1c-0.1-0.2-0.8-1.1-0.7-3.1c0.1-2.7-0.2-6.1,2.1-6.6c1.7-0.3,4.2-0.7,4.9-0.9c1.1-0.3,2.9-1.8,2.3-3.5
				c-0.6-1.8-2.3-1.2-2.8-1c-0.5,0.2-0.9,0.9-0.4,1.5c0,0,0.3-1.1,1.2-0.6c0.8,0.5,0.1,2-1.1,1.3c-1.2-0.6-1.2-2.1,0.1-2.7
				c1.2-0.7,3.3-0.5,3.9,2.2c0.6,2.7-2.4,4.2-4.4,4.8c-1.8,0.5-3.1,0.9-3.5,2.9c-0.5,2.1-1.1,3.7-0.3,4.6c0.8,0.8,2.4,0.2,4.6-0.3
				c2.1-0.4,2.4-1.7,2.9-3.5c0.5-2,2.1-5,4.8-4.4c2.7,0.6,2.8,2.6,2.2,3.9C334.4,257.3,333,257.3,332.3,256.1"/>
			<path class="st4" d="M326.9,251.6L326.9,251.6l0.6-0.8l0.7-0.7l0.1,0.1c0,0-0.3,0.6,0.2,1.1l1.3,1.3c0,0,0.6,0.6,1.1,0.3l0.1,0.1
				l-0.7,0.7l-0.7,0.7l-0.1-0.1c0.3-0.5-0.3-1.1-0.3-1.1l-1.3-1.3C327.5,251.3,326.9,251.6,326.9,251.6"/>
			<path class="st4" d="M316.7,255.2c-1.1,0-2,0.9-2,2v1.9c0-1.1,0.9-2,2-2c1.1,0,2,0.9,2,2v-1.9
				C318.8,256.1,317.9,255.2,316.7,255.2"/>
			<path class="st4" d="M316.7,273.1c1.1,0,2-0.9,2-2v-1.9c0,1.1-0.9,2-2,2c-1.1,0-2-0.9-2-2v1.9
				C314.7,272.2,315.6,273.1,316.7,273.1"/>
			<path class="st4" d="M307.8,264.2c0,1.1,0.9,2,2,2h1.9c-1.1,0-2-0.9-2-2c0-1.1,0.9-2,2-2h-1.9C308.7,262.1,307.8,263,307.8,264.2
				"/>
			<path class="st4" d="M325.7,264.2c0-1.1-0.9-2-2-2h-1.9c1.1,0,2,0.9,2,2c0,1.1-0.9,2-2,2h1.9
				C324.8,266.2,325.7,265.3,325.7,264.2"/>
			<polygon class="st4" points="318.6,245.6 314.9,245.6 314,246.8 316.7,249.5 319.4,246.8 			"/>
			<polygon class="st4" points="318.6,278.7 314.9,278.7 314,279.9 316.7,282.6 319.4,279.9 			"/>
			<polygon class="st4" points="334.6,262.2 330.9,262.2 330.1,263.4 332.7,266.1 335.4,263.4 			"/>
			<polygon class="st4" points="302.5,262.2 298.9,262.2 298,263.4 300.7,266.1 303.4,263.4 			"/>
		</g>
	</g>
</g>
</svg>
